<svg xmlns="http://www.w3.org/2000/svg" xmlns:xlink="http://www.w3.org/1999/xlink" width="72" zoomAndPan="magnify" viewBox="0 0 54 54" height="72" preserveAspectRatio="xMidYMid meet" version="1.2"><defs><clipPath id="3b1b237e2d"><path d="M 0.492188 0 L 53.507812 0 L 53.507812 53.019531 L 0.492188 53.019531 Z M 0.492188 0 "/></clipPath><clipPath id="14184a16fd"><path d="M 5.082031 0 L 49 0 L 49 52.820312 L 5.082031 52.820312 Z M 5.082031 0 "/></clipPath></defs><g id="219acf610f"><g clip-rule="nonzero" clip-path="url(#3b1b237e2d)"><path style=" stroke:none;fill-rule:nonzero;fill:#ffffff;fill-opacity:1;" d="M 0.492188 0 L 53.507812 0 L 53.507812 53.019531 L 0.492188 53.019531 Z M 0.492188 0 "/><path style=" stroke:none;fill-rule:nonzero;fill:#ffffff;fill-opacity:1;" d="M 0.492188 0 L 53.507812 0 L 53.507812 53.019531 L 0.492188 53.019531 Z M 0.492188 0 "/></g><g clip-rule="nonzero" clip-path="url(#14184a16fd)"><path style=" stroke:none;fill-rule:nonzero;fill:#2e5742;fill-opacity:1;" d="M 18.46875 0.613281 C 19.019531 0.597656 19.488281 0.871094 19.878906 1.429688 C 20.160156 1.832031 20.40625 2.371094 20.621094 3.046875 L 20.640625 3.097656 C 21.472656 4.644531 21.914062 7.660156 21.96875 12.140625 L 18.878906 11.222656 L 18.875 11.222656 C 17.832031 10.789062 16.769531 9.984375 15.6875 8.804688 C 13.554688 5.859375 13.6875 3.515625 16.085938 1.777344 C 16.359375 1.578125 16.664062 1.386719 16.996094 1.203125 L 17.019531 1.1875 C 17.550781 0.816406 18.035156 0.625 18.46875 0.613281 Z M 15.726562 0.414062 C 16.125 0.40625 16.539062 0.441406 16.960938 0.53125 C 16.871094 0.585938 16.785156 0.640625 16.695312 0.703125 C 16.347656 0.898438 16.03125 1.097656 15.742188 1.304688 C 13.027344 3.273438 12.855469 5.890625 15.222656 9.15625 L 15.242188 9.179688 C 16.390625 10.4375 17.53125 11.296875 18.664062 11.761719 L 18.691406 11.773438 L 29.074219 14.871094 C 29.101562 14.878906 29.128906 14.882812 29.160156 14.882812 C 29.210938 14.882812 29.261719 14.878906 29.3125 14.878906 C 31.445312 14.820312 33.214844 13.945312 34.625 12.25 C 34.667969 12.238281 34.714844 12.214844 34.761719 12.179688 C 35.265625 11.816406 36.316406 9.054688 37.914062 3.894531 L 37.910156 3.894531 C 38.328125 2.9375 38.796875 2.234375 39.320312 1.785156 L 39.316406 1.785156 C 39.792969 1.464844 40.257812 1.296875 40.710938 1.285156 C 41.484375 1.265625 42.222656 1.699219 42.925781 2.59375 L 42.921875 2.59375 C 44.523438 7.222656 45.304688 10.152344 45.269531 11.386719 C 45.269531 11.40625 45.269531 11.429688 45.273438 11.449219 C 45.46875 12.449219 45.125 15.253906 44.238281 19.859375 L 44.234375 19.894531 C 44.160156 20.9375 44.1875 21.941406 44.324219 22.914062 C 44.296875 23.644531 45.210938 26.382812 47.066406 31.125 L 47.066406 31.128906 C 47.433594 32.472656 47.621094 33.664062 47.632812 34.710938 C 47.632812 34.800781 47.675781 34.886719 47.746094 34.941406 C 47.953125 35.671875 46.683594 40.113281 43.929688 48.261719 C 42.976562 50.367188 41.355469 51.691406 39.0625 52.238281 L 25.078125 52.226562 L 25.074219 52.226562 C 14.625 51.679688 8.261719 49.886719 5.992188 46.84375 C 5.789062 46.277344 5.746094 45.585938 5.863281 44.765625 C 6.890625 40.707031 7.378906 38.296875 7.320312 37.527344 L 7.257812 28.226562 L 7.253906 28.226562 C 7.921875 23.890625 8.28125 18.382812 8.332031 11.710938 C 8.46875 9.972656 8.671875 8.605469 8.9375 7.601562 C 10.707031 2.886719 12.972656 0.492188 15.726562 0.414062 Z M 15.667969 -0.175781 C 12.683594 -0.09375 10.257812 2.433594 8.390625 7.402344 L 8.382812 7.425781 C 8.101562 8.46875 7.890625 9.878906 7.75 11.664062 L 7.75 11.683594 C 7.699219 18.347656 7.34375 23.839844 6.675781 28.15625 L 6.675781 28.203125 L 6.738281 37.53125 L 6.738281 37.558594 C 6.804688 38.226562 6.324219 40.585938 5.296875 44.632812 L 5.289062 44.660156 C 5.152344 45.605469 5.210938 46.414062 5.460938 47.082031 C 5.46875 47.105469 5.484375 47.128906 5.5 47.152344 C 7.855469 50.367188 14.371094 52.253906 25.050781 52.804688 L 25.066406 52.808594 L 39.097656 52.820312 C 39.101562 52.820312 39.101562 52.820312 39.105469 52.820312 C 39.125 52.820312 39.144531 52.816406 39.164062 52.8125 C 41.667969 52.226562 43.4375 50.78125 44.46875 48.476562 L 44.480469 48.449219 C 47.324219 40.035156 48.589844 35.445312 48.273438 34.683594 C 48.257812 34.644531 48.238281 34.609375 48.214844 34.578125 L 48.210938 34.578125 C 48.1875 33.503906 47.992188 32.296875 47.621094 30.945312 L 47.609375 30.917969 C 45.742188 26.148438 44.84375 23.484375 44.90625 22.929688 C 44.910156 22.902344 44.90625 22.878906 44.90625 22.855469 C 44.773438 21.925781 44.742188 20.964844 44.8125 19.964844 C 45.699219 15.339844 46.046875 12.476562 45.851562 11.375 C 45.878906 10.054688 45.078125 7.050781 43.457031 2.355469 C 43.445312 2.328125 43.433594 2.296875 43.414062 2.273438 C 42.570312 1.183594 41.671875 0.652344 40.726562 0.675781 C 40.164062 0.691406 39.582031 0.902344 38.984375 1.308594 L 38.960938 1.328125 C 38.359375 1.835938 37.832031 2.617188 37.375 3.667969 L 37.363281 3.699219 C 35.839844 8.625 34.867188 11.289062 34.449219 11.683594 C 34.371094 11.691406 34.300781 11.726562 34.25 11.789062 C 32.941406 13.40625 31.289062 14.242188 29.292969 14.296875 C 29.261719 14.296875 29.230469 14.300781 29.199219 14.300781 L 29.195312 14.300781 L 22.550781 12.316406 C 22.507812 7.667969 22.046875 4.511719 21.167969 2.851562 C 20.9375 2.125 20.667969 1.542969 20.355469 1.097656 C 19.832031 0.34375 19.210938 -0.0195312 18.492188 0 C 18.25 0.00390625 17.996094 0.0546875 17.730469 0.152344 C 17.699219 0.128906 17.667969 0.109375 17.628906 0.0976562 C 16.949219 -0.101562 16.296875 -0.191406 15.667969 -0.175781 Z M 15.667969 -0.175781 "/></g><path style=" stroke:none;fill-rule:nonzero;fill:#2e5742;fill-opacity:1;" d="M 43.613281 8.28125 C 43.675781 8.28125 43.738281 8.304688 43.800781 8.359375 C 43.746094 8.316406 43.679688 8.296875 43.613281 8.296875 C 43.566406 8.300781 43.519531 8.3125 43.472656 8.339844 C 43.460938 8.347656 43.445312 8.359375 43.433594 8.371094 C 43.492188 8.3125 43.550781 8.28125 43.613281 8.28125 Z M 43.351562 8.484375 C 43.34375 8.503906 43.339844 8.519531 43.335938 8.535156 C 43.339844 8.519531 43.34375 8.503906 43.347656 8.484375 Z M 41.34375 2.34375 C 41.59375 2.609375 41.742188 2.859375 41.785156 3.09375 L 41.789062 3.109375 L 42.097656 4.3125 L 42.097656 4.324219 C 42.878906 6.964844 43.289062 8.394531 43.332031 8.609375 C 43.332031 8.625 43.335938 8.640625 43.339844 8.660156 C 43.503906 9.335938 43.550781 9.921875 43.476562 10.410156 L 43.476562 10.421875 C 43.425781 10.890625 43.167969 11.566406 42.703125 12.449219 C 41.882812 14.003906 41.320312 14.898438 41.015625 15.132812 C 40.996094 15.148438 40.976562 15.167969 40.960938 15.1875 C 40.886719 15.285156 40.816406 15.34375 40.757812 15.363281 C 40.742188 15.367188 40.730469 15.371094 40.714844 15.371094 C 40.492188 15.378906 40.214844 14.902344 39.878906 13.941406 L 39.875 13.941406 C 39.589844 12.996094 39.460938 12.164062 39.5 11.445312 C 39.519531 11.046875 39.558594 10.714844 39.617188 10.445312 L 40.113281 8.445312 L 40.113281 8.441406 C 40.164062 8.226562 40.199219 8.027344 40.222656 7.839844 C 40.277344 7.597656 40.289062 6.882812 40.257812 5.699219 C 40.265625 5.480469 40.28125 5.253906 40.3125 5.019531 C 40.503906 3.84375 40.847656 2.953125 41.34375 2.34375 Z M 41.21875 1.539062 C 41.140625 1.542969 41.0625 1.574219 41.007812 1.640625 C 40.941406 1.71875 40.921875 1.820312 40.945312 1.910156 C 40.355469 2.601562 39.953125 3.605469 39.738281 4.921875 L 39.738281 4.933594 C 39.703125 5.191406 39.683594 5.441406 39.675781 5.683594 L 39.675781 5.699219 C 39.707031 6.859375 39.699219 7.53125 39.65625 7.710938 L 39.648438 7.746094 C 39.628906 7.917969 39.59375 8.105469 39.546875 8.308594 L 39.054688 10.304688 L 39.050781 10.3125 C 38.984375 10.613281 38.941406 10.980469 38.917969 11.414062 L 38.917969 11.417969 C 38.878906 12.199219 39.011719 13.097656 39.320312 14.109375 L 39.324219 14.121094 C 39.757812 15.355469 40.230469 15.964844 40.742188 15.953125 C 40.808594 15.949219 40.878906 15.9375 40.953125 15.914062 C 41.109375 15.859375 41.257812 15.746094 41.394531 15.574219 C 41.773438 15.265625 42.378906 14.3125 43.21875 12.71875 C 43.714844 11.777344 43.992188 11.039062 44.054688 10.496094 C 44.136719 9.941406 44.089844 9.296875 43.917969 8.5625 L 43.914062 8.5625 C 43.914062 8.550781 43.914062 8.535156 43.910156 8.523438 C 43.878906 8.335938 43.460938 6.886719 42.660156 4.167969 L 42.355469 2.96875 C 42.261719 2.519531 41.949219 2.066406 41.417969 1.609375 C 41.359375 1.558594 41.289062 1.539062 41.21875 1.539062 Z M 41.21875 1.539062 "/><path style=" stroke:none;fill-rule:nonzero;fill:#2e5742;fill-opacity:1;" d="M 18.363281 4.332031 C 18.449219 4.328125 18.511719 4.359375 18.558594 4.421875 C 18.527344 4.390625 18.488281 4.367188 18.445312 4.351562 C 18.410156 4.339844 18.375 4.335938 18.339844 4.335938 C 18.332031 4.335938 18.320312 4.335938 18.308594 4.339844 C 18.328125 4.335938 18.347656 4.332031 18.363281 4.332031 Z M 17.621094 2.988281 C 17.445312 2.992188 17.242188 3.058594 17.011719 3.179688 C 16.589844 3.386719 16.269531 3.644531 16.046875 3.957031 L 16.023438 3.996094 C 15.324219 5.410156 14.828125 6.613281 14.535156 7.601562 C 14.488281 7.757812 14.578125 7.917969 14.730469 7.964844 C 14.761719 7.972656 14.792969 7.976562 14.820312 7.976562 C 14.945312 7.972656 15.054688 7.890625 15.09375 7.765625 C 15.375 6.816406 15.851562 5.652344 16.53125 4.28125 C 16.695312 4.054688 16.945312 3.859375 17.273438 3.699219 L 17.285156 3.695312 C 17.445312 3.609375 17.554688 3.566406 17.621094 3.566406 C 17.644531 3.5625 17.664062 3.570312 17.675781 3.582031 L 17.699219 3.605469 C 17.742188 3.640625 17.773438 3.691406 17.796875 3.75 L 17.792969 3.75 C 17.917969 4.285156 18.007812 4.609375 18.058594 4.71875 C 18.078125 4.757812 18.097656 4.789062 18.117188 4.816406 C 18.195312 4.953125 18.378906 5.210938 18.675781 5.582031 C 18.71875 5.652344 18.761719 5.730469 18.800781 5.8125 L 18.804688 5.816406 C 18.886719 5.996094 18.945312 6.191406 18.972656 6.410156 C 18.996094 6.574219 19.007812 6.773438 19.007812 7.007812 L 18.976562 9.289062 L 18.710938 11.363281 C 18.6875 11.523438 18.800781 11.667969 18.960938 11.691406 C 18.976562 11.691406 18.992188 11.691406 19.007812 11.691406 C 19.148438 11.6875 19.269531 11.582031 19.285156 11.4375 L 19.554688 9.347656 L 19.558594 9.3125 L 19.589844 7.015625 L 19.589844 7.011719 C 19.589844 6.75 19.578125 6.523438 19.550781 6.332031 C 19.515625 6.058594 19.441406 5.804688 19.332031 5.570312 C 19.277344 5.449219 19.214844 5.339844 19.148438 5.242188 L 19.132812 5.222656 C 18.839844 4.851562 18.671875 4.625 18.628906 4.539062 C 18.617188 4.503906 18.597656 4.472656 18.578125 4.445312 L 18.574219 4.445312 C 18.535156 4.335938 18.460938 4.054688 18.355469 3.597656 L 18.347656 3.570312 C 18.296875 3.414062 18.210938 3.285156 18.09375 3.179688 C 17.96875 3.046875 17.8125 2.984375 17.621094 2.988281 Z M 17.621094 2.988281 "/><path style=" stroke:none;fill-rule:nonzero;fill:#2e5742;fill-opacity:1;" d="M 19.515625 40.199219 C 19.546875 40.210938 19.582031 40.214844 19.613281 40.21875 C 19.578125 40.214844 19.542969 40.210938 19.515625 40.199219 Z M 14.953125 34.796875 C 14.925781 34.796875 14.894531 34.800781 14.867188 34.8125 C 14.714844 34.867188 14.636719 35.035156 14.6875 35.183594 C 15.054688 36.21875 15.488281 37.019531 15.988281 37.589844 L 15.984375 37.589844 C 16.191406 37.851562 16.457031 38.101562 16.785156 38.347656 L 16.820312 38.367188 C 18.308594 39.171875 19.160156 39.742188 19.378906 40.082031 C 19.40625 40.125 19.445312 40.160156 19.488281 40.183594 L 19.484375 40.183594 C 19.730469 40.421875 20.777344 41.933594 22.628906 44.71875 L 22.644531 44.738281 C 23.035156 45.269531 23.367188 45.671875 23.632812 45.949219 C 24.496094 46.84375 25.675781 47.566406 27.164062 48.117188 C 27.199219 48.128906 27.238281 48.132812 27.273438 48.132812 C 27.390625 48.128906 27.496094 48.058594 27.539062 47.945312 C 27.59375 47.792969 27.515625 47.625 27.367188 47.570312 C 25.960938 47.050781 24.855469 46.375 24.054688 45.546875 C 23.804688 45.289062 23.492188 44.90625 23.117188 44.394531 L 23.113281 44.394531 C 21.1875 41.496094 20.097656 39.941406 19.847656 39.726562 C 19.84375 39.71875 19.835938 39.714844 19.828125 39.710938 C 19.511719 39.285156 18.609375 38.671875 17.121094 37.867188 L 17.117188 37.867188 C 16.835938 37.65625 16.605469 37.4375 16.433594 37.21875 L 16.425781 37.207031 C 15.976562 36.691406 15.582031 35.953125 15.238281 34.988281 C 15.195312 34.867188 15.078125 34.792969 14.953125 34.796875 Z M 14.953125 34.796875 "/><path style=" stroke:none;fill-rule:nonzero;fill:#2e5742;fill-opacity:1;" d="M 30.296875 49.328125 C 30.144531 49.332031 30.019531 49.449219 30.015625 49.601562 C 30.007812 49.765625 30.128906 49.902344 30.292969 49.90625 L 30.292969 49.910156 C 30.753906 49.929688 31.085938 49.949219 31.292969 49.96875 C 31.292969 49.96875 31.296875 49.96875 31.304688 49.96875 C 32.417969 50.0625 33.304688 50.136719 33.96875 50.199219 C 34.070312 50.210938 34.355469 50.222656 34.824219 50.246094 C 34.832031 50.246094 34.839844 50.246094 34.847656 50.246094 C 34.996094 50.242188 35.121094 50.121094 35.128906 49.964844 C 35.136719 49.804688 35.011719 49.667969 34.851562 49.664062 C 34.390625 49.644531 34.113281 49.628906 34.023438 49.621094 C 33.359375 49.558594 32.472656 49.480469 31.359375 49.390625 C 31.359375 49.390625 31.355469 49.390625 31.34375 49.386719 C 31.128906 49.371094 30.789062 49.347656 30.320312 49.328125 L 30.316406 49.328125 C 30.3125 49.328125 30.304688 49.324219 30.296875 49.328125 Z M 30.296875 49.328125 "/><path style=" stroke:none;fill-rule:nonzero;fill:#2e5742;fill-opacity:1;" d="M 40.078125 23.636719 C 40.046875 23.636719 40.011719 23.644531 39.976562 23.65625 C 39.828125 23.71875 39.757812 23.886719 39.816406 24.035156 C 40.925781 26.800781 41.5 28.300781 41.539062 28.527344 L 41.535156 28.527344 C 41.539062 28.550781 41.542969 28.574219 41.550781 28.59375 C 41.753906 29.253906 41.84375 30.039062 41.828125 30.953125 C 41.800781 31.386719 41.726562 31.8125 41.609375 32.238281 L 41.605469 32.238281 L 40.28125 35.753906 L 40.277344 35.761719 C 40.097656 36.289062 39.976562 36.839844 39.914062 37.414062 C 39.851562 37.902344 39.859375 38.488281 39.941406 39.175781 L 39.941406 39.179688 C 39.960938 39.441406 40.101562 40.171875 40.367188 41.375 C 40.425781 41.730469 40.464844 42.003906 40.480469 42.199219 C 40.515625 42.710938 40.5 43.136719 40.433594 43.476562 C 40.039062 44.695312 39.527344 45.429688 38.898438 45.675781 C 38.75 45.734375 38.675781 45.902344 38.734375 46.050781 C 38.78125 46.167969 38.894531 46.242188 39.011719 46.238281 C 39.046875 46.234375 39.078125 46.230469 39.113281 46.21875 C 39.914062 45.902344 40.542969 45.039062 40.996094 43.628906 L 41.003906 43.597656 C 41.082031 43.207031 41.101562 42.726562 41.0625 42.15625 L 41.0625 42.152344 C 41.042969 41.9375 41.003906 41.640625 40.9375 41.265625 L 40.9375 41.25 C 40.671875 40.046875 40.53125 39.339844 40.519531 39.128906 L 40.519531 39.109375 C 40.441406 38.464844 40.433594 37.925781 40.492188 37.484375 L 40.492188 37.480469 C 40.550781 36.949219 40.660156 36.445312 40.828125 35.960938 L 42.160156 32.417969 L 42.167969 32.394531 C 42.300781 31.925781 42.378906 31.453125 42.410156 30.976562 L 42.410156 30.964844 C 42.429688 30.003906 42.332031 29.171875 42.117188 28.464844 C 42.117188 28.453125 42.113281 28.445312 42.113281 28.433594 C 42.070312 28.164062 41.484375 26.625 40.355469 23.820312 C 40.308594 23.703125 40.195312 23.632812 40.078125 23.636719 Z M 40.078125 23.636719 "/><path style=" stroke:none;fill-rule:nonzero;fill:#2e5742;fill-opacity:1;" d="M 11.226562 12.425781 C 11.207031 12.425781 11.1875 12.429688 11.164062 12.433594 C 11.007812 12.472656 10.914062 12.632812 10.953125 12.789062 C 11.355469 14.402344 12.1875 15.441406 13.449219 15.902344 L 13.460938 15.90625 C 13.816406 16.023438 14.175781 16.089844 14.53125 16.101562 C 14.589844 16.105469 14.6875 16.109375 14.820312 16.105469 C 15.1875 16.09375 15.835938 16.050781 16.765625 15.976562 L 16.769531 15.976562 C 17.085938 15.984375 17.320312 16.011719 17.480469 16.054688 L 17.492188 16.058594 C 17.667969 16.101562 17.9375 16.21875 18.296875 16.417969 L 18.292969 16.417969 C 19.683594 17.273438 20.46875 17.738281 20.652344 17.804688 C 20.660156 17.808594 20.667969 17.8125 20.679688 17.816406 L 20.675781 17.816406 C 21.210938 18.0625 21.773438 18.238281 22.363281 18.351562 L 22.367188 18.351562 C 22.933594 18.457031 23.554688 18.5 24.230469 18.480469 C 24.890625 18.464844 25.601562 18.386719 26.363281 18.25 C 26.523438 18.222656 26.625 18.070312 26.597656 17.914062 C 26.574219 17.769531 26.445312 17.667969 26.304688 17.671875 C 26.289062 17.671875 26.273438 17.675781 26.261719 17.675781 C 25.527344 17.808594 24.84375 17.882812 24.214844 17.902344 C 23.582031 17.917969 23.003906 17.878906 22.472656 17.78125 C 21.921875 17.675781 21.398438 17.507812 20.898438 17.273438 C 20.882812 17.269531 20.867188 17.261719 20.855469 17.257812 L 20.851562 17.257812 C 20.699219 17.199219 19.945312 16.75 18.589844 15.914062 L 18.574219 15.90625 C 18.179688 15.6875 17.867188 15.550781 17.636719 15.492188 C 17.429688 15.433594 17.136719 15.402344 16.765625 15.394531 L 16.734375 15.394531 C 15.78125 15.472656 15.136719 15.515625 14.804688 15.523438 C 14.695312 15.527344 14.621094 15.527344 14.578125 15.523438 L 14.558594 15.519531 C 14.257812 15.511719 13.957031 15.457031 13.652344 15.355469 C 12.582031 14.964844 11.871094 14.0625 11.519531 12.648438 C 11.484375 12.511719 11.359375 12.421875 11.226562 12.425781 Z M 11.226562 12.425781 "/><path style=" stroke:none;fill-rule:nonzero;fill:#2e5742;fill-opacity:1;" d="M 9.917969 37.53125 C 9.804688 37.535156 9.703125 37.601562 9.664062 37.699219 L 9.65625 37.71875 C 9.605469 37.84375 9.558594 37.988281 9.515625 38.15625 L 8.839844 40.664062 L 8.835938 40.667969 C 8.6875 41.253906 8.625 41.652344 8.65625 41.863281 C 8.664062 42.042969 8.726562 42.328125 8.832031 42.71875 C 9.019531 43.417969 9.152344 43.84375 9.234375 43.988281 L 9.230469 43.988281 C 9.351562 44.3125 9.628906 44.636719 10.070312 44.964844 C 10.121094 45.003906 10.1875 45.023438 10.25 45.019531 C 10.335938 45.019531 10.421875 44.976562 10.476562 44.902344 C 10.570312 44.773438 10.546875 44.59375 10.417969 44.496094 C 10.0625 44.230469 9.847656 43.992188 9.773438 43.773438 C 9.765625 43.75 9.757812 43.730469 9.746094 43.710938 C 9.691406 43.617188 9.574219 43.238281 9.394531 42.566406 C 9.292969 42.199219 9.242188 41.949219 9.238281 41.816406 L 9.234375 41.777344 C 9.210938 41.652344 9.269531 41.332031 9.402344 40.816406 L 10.078125 38.308594 C 10.113281 38.171875 10.152344 38.050781 10.191406 37.945312 L 10.199219 37.929688 C 10.257812 37.78125 10.183594 37.609375 10.035156 37.550781 C 9.996094 37.539062 9.957031 37.53125 9.917969 37.53125 Z M 9.917969 37.53125 "/></g></svg>