<svg xmlns="http://www.w3.org/2000/svg" xmlns:xlink="http://www.w3.org/1999/xlink" width="72" zoomAndPan="magnify" viewBox="0 0 54 54" height="72" preserveAspectRatio="xMidYMid meet" version="1.2"><defs><clipPath id="1b3bf1402c"><path d="M 0.492188 46 L 53.507812 46 L 53.507812 53.019531 L 0.492188 53.019531 Z M 0.492188 46 "/></clipPath><clipPath id="c15101a582"><path d="M 0.492188 0.0507812 L 53.507812 0.0507812 L 53.507812 30 L 0.492188 30 Z M 0.492188 0.0507812 "/></clipPath></defs><g id="c82fb84622"><path style=" stroke:none;fill-rule:nonzero;fill:#ffffff;fill-opacity:1;" d="M 23.753906 28.214844 C 19.179688 28.214844 15.46875 24.503906 15.46875 19.929688 C 15.46875 15.359375 19.179688 11.648438 23.753906 11.648438 C 23.753906 6.164062 28.210938 1.707031 33.695312 1.707031 C 38.050781 1.707031 41.746094 4.507812 43.089844 8.398438 C 48.058594 8.945312 51.921875 13.171875 51.921875 18.273438 C 51.921875 23.757812 47.464844 28.214844 41.980469 28.214844 Z M 23.753906 28.214844 "/><path style=" stroke:none;fill-rule:nonzero;fill:#ffffff;fill-opacity:1;" d="M 8.84375 28.214844 C 5.179688 28.214844 2.214844 25.25 2.214844 21.585938 C 2.214844 17.925781 5.179688 14.960938 8.84375 14.960938 C 8.84375 9.476562 13.300781 5.019531 18.785156 5.019531 C 23.140625 5.019531 26.851562 7.835938 28.179688 11.730469 C 32.21875 12.261719 35.351562 15.738281 35.351562 19.929688 C 35.351562 24.503906 31.640625 28.214844 27.066406 28.214844 Z M 8.84375 28.214844 "/><g clip-rule="nonzero" clip-path="url(#1b3bf1402c)"><path style=" stroke:none;fill-rule:nonzero;fill:#2e5742;fill-opacity:1;" d="M 46.949219 49.753906 C 46.019531 49.753906 45.621094 49.394531 44.808594 48.582031 C 43.902344 47.675781 42.664062 46.441406 40.324219 46.441406 C 37.980469 46.441406 36.742188 47.675781 35.835938 48.582031 C 35.023438 49.394531 34.625 49.753906 33.695312 49.753906 C 32.765625 49.753906 32.363281 49.394531 31.554688 48.582031 C 30.648438 47.675781 29.410156 46.441406 27.066406 46.441406 C 24.726562 46.441406 23.484375 47.675781 22.582031 48.582031 C 21.769531 49.394531 21.371094 49.753906 20.441406 49.753906 C 19.507812 49.753906 19.109375 49.394531 18.296875 48.582031 C 17.394531 47.675781 16.15625 46.441406 13.8125 46.441406 C 11.46875 46.441406 10.230469 47.675781 9.328125 48.582031 C 8.515625 49.394531 8.117188 49.753906 7.1875 49.753906 C 5.84375 49.753906 4.800781 48.890625 3.792969 48.054688 C 2.832031 47.261719 1.839844 46.441406 0.558594 46.441406 L 0.492188 49.746094 C 0.710938 49.808594 1.292969 50.289062 1.675781 50.609375 C 2.929688 51.644531 4.648438 53.066406 7.1875 53.066406 C 9.527344 53.066406 10.769531 51.828125 11.671875 50.925781 C 12.484375 50.113281 12.882812 49.753906 13.8125 49.753906 C 14.746094 49.753906 15.144531 50.113281 15.957031 50.925781 C 16.859375 51.828125 18.097656 53.066406 20.441406 53.066406 C 22.785156 53.066406 24.023438 51.828125 24.925781 50.925781 C 25.738281 50.113281 26.136719 49.753906 27.066406 49.753906 C 28 49.753906 28.398438 50.113281 29.210938 50.925781 C 30.113281 51.828125 31.351562 53.066406 33.695312 53.066406 C 36.039062 53.066406 37.277344 51.828125 38.179688 50.925781 C 38.992188 50.113281 39.390625 49.753906 40.324219 49.753906 C 41.253906 49.753906 41.652344 50.113281 42.464844 50.925781 C 43.367188 51.828125 44.605469 53.066406 46.949219 53.066406 C 49.488281 53.066406 51.203125 51.644531 52.457031 50.609375 C 52.839844 50.289062 53.421875 49.808594 53.578125 49.753906 L 53.578125 46.441406 C 52.292969 46.441406 51.300781 47.261719 50.34375 48.054688 C 49.332031 48.890625 48.292969 49.753906 46.949219 49.753906 Z M 46.949219 49.753906 "/></g><path style=" stroke:none;fill-rule:nonzero;fill:#2e5742;fill-opacity:1;" d="M 9.066406 38.214844 L 12.449219 32.355469 L 15.316406 34.011719 L 11.9375 39.871094 Z M 9.066406 38.214844 "/><path style=" stroke:none;fill-rule:nonzero;fill:#2e5742;fill-opacity:1;" d="M 5.75 43.953125 L 7.40625 41.085938 L 10.277344 42.742188 L 8.621094 45.609375 Z M 5.75 43.953125 "/><path style=" stroke:none;fill-rule:nonzero;fill:#2e5742;fill-opacity:1;" d="M 17.347656 38.214844 L 20.730469 32.355469 L 23.601562 34.011719 L 20.21875 39.871094 Z M 17.347656 38.214844 "/><path style=" stroke:none;fill-rule:nonzero;fill:#2e5742;fill-opacity:1;" d="M 14.035156 43.953125 L 15.691406 41.085938 L 18.5625 42.742188 L 16.90625 45.609375 Z M 14.035156 43.953125 "/><path style=" stroke:none;fill-rule:nonzero;fill:#2e5742;fill-opacity:1;" d="M 25.632812 38.214844 L 29.015625 32.355469 L 31.882812 34.011719 L 28.503906 39.871094 Z M 25.632812 38.214844 "/><path style=" stroke:none;fill-rule:nonzero;fill:#2e5742;fill-opacity:1;" d="M 22.320312 43.953125 L 23.976562 41.085938 L 26.84375 42.742188 L 25.1875 45.609375 Z M 22.320312 43.953125 "/><path style=" stroke:none;fill-rule:nonzero;fill:#2e5742;fill-opacity:1;" d="M 33.917969 38.214844 L 37.300781 32.355469 L 40.167969 34.011719 L 36.785156 39.871094 Z M 33.917969 38.214844 "/><path style=" stroke:none;fill-rule:nonzero;fill:#2e5742;fill-opacity:1;" d="M 30.601562 43.953125 L 32.261719 41.085938 L 35.128906 42.742188 L 33.472656 45.609375 Z M 30.601562 43.953125 "/><path style=" stroke:none;fill-rule:nonzero;fill:#2e5742;fill-opacity:1;" d="M 42.203125 38.214844 L 45.582031 32.355469 L 48.453125 34.011719 L 45.070312 39.871094 Z M 42.203125 38.214844 "/><path style=" stroke:none;fill-rule:nonzero;fill:#2e5742;fill-opacity:1;" d="M 38.886719 43.953125 L 40.542969 41.085938 L 43.414062 42.742188 L 41.757812 45.609375 Z M 38.886719 43.953125 "/><path style=" stroke:none;fill-rule:nonzero;fill:#2e5742;fill-opacity:1;" d="M 15.46875 26.558594 L 18.785156 26.558594 L 18.785156 29.871094 L 15.46875 29.871094 Z M 15.46875 26.558594 "/><g clip-rule="nonzero" clip-path="url(#c15101a582)"><path style=" stroke:none;fill-rule:nonzero;fill:#2e5742;fill-opacity:1;" d="M 8.84375 29.871094 L 12.15625 29.871094 L 12.15625 26.558594 L 8.84375 26.558594 C 6.101562 26.558594 3.871094 24.328125 3.871094 21.585938 C 3.871094 18.847656 6.101562 16.617188 8.84375 16.617188 C 9.757812 16.617188 10.5 15.875 10.5 14.960938 C 10.5 10.394531 14.214844 6.675781 18.785156 6.675781 C 22.328125 6.675781 25.472656 8.921875 26.609375 12.261719 C 26.8125 12.859375 27.335938 13.289062 27.960938 13.371094 C 31.230469 13.800781 33.695312 16.621094 33.695312 19.929688 C 33.695312 23.585938 30.722656 26.558594 27.066406 26.558594 L 22.097656 26.558594 L 22.097656 29.871094 L 41.976562 29.871094 C 48.371094 29.871094 53.574219 24.667969 53.574219 18.273438 C 53.574219 12.695312 49.644531 7.980469 44.277344 6.910156 C 42.429688 2.769531 38.296875 0.0507812 33.695312 0.0507812 C 29.988281 0.0507812 26.519531 1.855469 24.347656 4.8125 C 22.675781 3.898438 20.78125 3.363281 18.785156 3.363281 C 12.902344 3.363281 8.027344 7.765625 7.285156 13.449219 C 3.457031 14.183594 0.558594 17.550781 0.558594 21.585938 C 0.558594 26.15625 4.273438 29.871094 8.84375 29.871094 Z M 33.695312 3.363281 C 37.226562 3.363281 40.371094 5.605469 41.523438 8.941406 C 41.734375 9.542969 42.273438 9.976562 42.910156 10.046875 C 47.101562 10.507812 50.261719 14.042969 50.261719 18.273438 C 50.261719 22.84375 46.546875 26.558594 41.980469 26.558594 L 34.457031 26.558594 C 36.035156 24.796875 37.007812 22.480469 37.007812 19.929688 C 37.007812 15.304688 33.792969 11.316406 29.382812 10.269531 C 28.804688 8.949219 27.972656 7.796875 26.988281 6.804688 C 28.539062 4.667969 31.03125 3.363281 33.695312 3.363281 Z M 33.695312 3.363281 "/></g></g></svg>