<svg xmlns="http://www.w3.org/2000/svg" xmlns:xlink="http://www.w3.org/1999/xlink" width="72" zoomAndPan="magnify" viewBox="0 0 54 54" height="72" preserveAspectRatio="xMidYMid meet" version="1.2"><defs><clipPath id="e9969c98c9"><path d="M 0.492188 0 L 53.507812 0 L 53.507812 53.019531 L 0.492188 53.019531 Z M 0.492188 0 "/></clipPath><clipPath id="b5ec91c3a7"><path d="M 0.492188 5.765625 L 53.507812 5.765625 L 53.507812 47 L 0.492188 47 Z M 0.492188 5.765625 "/></clipPath></defs><g id="93c459b0b3"><g clip-rule="nonzero" clip-path="url(#e9969c98c9)"><path style=" stroke:none;fill-rule:nonzero;fill:#ffffff;fill-opacity:1;" d="M 0.492188 0 L 53.507812 0 L 53.507812 53.019531 L 0.492188 53.019531 Z M 0.492188 0 "/><path style=" stroke:none;fill-rule:nonzero;fill:#ffffff;fill-opacity:1;" d="M 0.492188 0 L 53.507812 0 L 53.507812 53.019531 L 0.492188 53.019531 Z M 0.492188 0 "/></g><g clip-rule="nonzero" clip-path="url(#b5ec91c3a7)"><path style=" stroke:none;fill-rule:nonzero;fill:#2e5742;fill-opacity:1;" d="M 6.390625 30.648438 C 6.296875 30.5625 6.207031 30.488281 6.128906 30.417969 C 5.957031 30.300781 5.773438 30.152344 5.59375 29.929688 C 5.503906 29.820312 5.417969 29.6875 5.34375 29.542969 C 5.308594 29.558594 5.269531 29.578125 5.230469 29.601562 C 4.996094 29.71875 4.65625 29.902344 4.226562 30.167969 C 3.796875 30.4375 3.273438 30.785156 2.738281 31.273438 C 2.480469 31.519531 2.203125 31.796875 2 32.125 C 1.964844 32.175781 1.964844 32.171875 1.957031 32.191406 L 1.933594 32.234375 C 1.914062 32.265625 1.910156 32.285156 1.898438 32.3125 C 1.886719 32.335938 1.886719 32.367188 1.875 32.394531 C 1.867188 32.414062 1.886719 32.414062 1.902344 32.414062 L 1.945312 32.421875 C 1.972656 32.421875 2 32.421875 2.03125 32.417969 C 2.074219 32.414062 2.113281 32.410156 2.15625 32.402344 C 2.253906 32.378906 2.351562 32.359375 2.445312 32.335938 C 2.546875 32.320312 2.648438 32.28125 2.75 32.25 C 3.148438 32.128906 3.523438 31.972656 3.867188 31.824219 C 4.5625 31.519531 5.144531 31.226562 5.628906 31 C 5.925781 30.859375 6.179688 30.742188 6.390625 30.648438 Z M 9.003906 20.949219 C 9 20.941406 9 20.9375 8.992188 20.933594 C 8.917969 20.871094 8.796875 20.78125 8.640625 20.667969 C 8.308594 20.449219 7.777344 20.1875 7.027344 19.96875 C 6.273438 19.734375 5.375 19.515625 4.351562 19.410156 C 3.839844 19.359375 3.304688 19.335938 2.777344 19.398438 C 2.261719 19.457031 1.71875 19.628906 1.542969 19.972656 C 1.441406 20.144531 1.410156 20.390625 1.402344 20.652344 C 1.480469 20.621094 1.554688 20.585938 1.621094 20.554688 C 1.910156 20.457031 2.128906 20.429688 2.292969 20.429688 C 2.625 20.429688 2.753906 20.523438 2.789062 20.648438 C 2.824219 20.777344 2.730469 20.917969 2.46875 21.074219 C 2.230469 21.230469 1.710938 21.40625 1.554688 21.765625 L 1.539062 21.761719 C 1.632812 22.183594 1.765625 22.585938 1.925781 22.949219 C 1.980469 23.078125 2.046875 23.191406 2.105469 23.304688 C 2.175781 23.113281 2.269531 22.945312 2.375 22.832031 C 2.625 22.546875 2.878906 22.410156 3.078125 22.347656 C 3.277344 22.285156 3.429688 22.296875 3.523438 22.328125 C 3.617188 22.359375 3.664062 22.410156 3.679688 22.472656 C 3.691406 22.539062 3.671875 22.605469 3.625 22.679688 C 3.574219 22.753906 3.496094 22.828125 3.398438 22.933594 C 3.296875 23.03125 3.183594 23.167969 3.078125 23.335938 C 2.988281 23.492188 2.863281 23.882812 2.992188 24.042969 C 3.113281 24.1875 3.597656 24.253906 3.777344 24.300781 C 3.929688 24.339844 4.070312 24.375 4.214844 24.402344 C 4.28125 23.878906 4.480469 23.496094 4.6875 23.304688 C 4.820312 23.167969 4.949219 23.109375 5.042969 23.09375 C 5.136719 23.078125 5.199219 23.101562 5.242188 23.148438 C 5.285156 23.199219 5.304688 23.269531 5.304688 23.351562 C 5.300781 23.433594 5.277344 23.53125 5.25 23.664062 C 5.203125 23.855469 5.132812 24.125 5.121094 24.554688 C 5.289062 24.574219 5.441406 24.589844 5.574219 24.597656 C 6.003906 24.632812 6.234375 24.628906 6.234375 24.628906 C 6.285156 24.628906 6.332031 24.636719 6.375 24.644531 C 6.839844 23.710938 7.492188 22.628906 8.441406 21.539062 C 8.625 21.34375 8.8125 21.144531 9.003906 20.949219 Z M 34.117188 12.765625 C 34.140625 12.664062 34.15625 12.503906 34.136719 12.277344 C 34.101562 11.832031 33.789062 11.097656 33.1875 10.277344 C 32.640625 9.484375 31.683594 8.777344 30.402344 8.332031 C 29.769531 8.097656 29.070312 7.910156 28.335938 7.730469 C 28.152344 7.683594 27.960938 7.636719 27.773438 7.59375 C 27.582031 7.535156 27.390625 7.480469 27.195312 7.425781 C 26.816406 7.316406 26.441406 7.203125 26.058594 7.101562 C 25.292969 6.898438 24.539062 6.738281 23.824219 6.695312 C 23.476562 6.679688 23.128906 6.695312 22.855469 6.777344 C 22.714844 6.8125 22.605469 6.878906 22.527344 6.9375 C 22.464844 6.992188 22.421875 7.0625 22.398438 7.164062 C 22.34375 7.371094 22.378906 7.671875 22.449219 7.957031 C 22.484375 8.105469 22.53125 8.25 22.574219 8.394531 C 22.59375 8.457031 22.617188 8.503906 22.640625 8.558594 C 22.691406 8.503906 22.746094 8.457031 22.800781 8.414062 C 23.058594 8.191406 23.324219 8.0625 23.539062 8.035156 C 23.75 7.992188 23.898438 8.03125 23.988281 8.074219 C 24.074219 8.117188 24.113281 8.175781 24.113281 8.242188 C 24.117188 8.304688 24.089844 8.371094 24.035156 8.4375 C 23.972656 8.503906 23.882812 8.558594 23.785156 8.652344 C 23.671875 8.734375 23.558594 8.851562 23.40625 9.023438 C 23.339844 9.105469 23.265625 9.210938 23.175781 9.332031 C 23.363281 9.523438 23.570312 9.691406 23.78125 9.839844 C 23.785156 9.847656 23.796875 9.855469 23.804688 9.859375 C 23.835938 9.808594 23.867188 9.753906 23.90625 9.710938 C 24.003906 9.601562 24.097656 9.492188 24.199219 9.402344 C 24.308594 9.328125 24.40625 9.257812 24.503906 9.191406 C 24.910156 8.976562 25.25 8.898438 25.503906 8.890625 C 25.757812 8.871094 25.933594 8.910156 26.042969 8.957031 C 26.152344 9.003906 26.199219 9.058594 26.203125 9.125 C 26.207031 9.191406 26.164062 9.257812 26.074219 9.324219 C 25.984375 9.390625 25.84375 9.445312 25.65625 9.539062 C 25.464844 9.621094 25.230469 9.742188 24.980469 9.921875 C 24.832031 10.03125 24.695312 10.179688 24.589844 10.363281 C 24.714844 10.4375 24.839844 10.511719 24.957031 10.582031 C 25.085938 10.65625 25.210938 10.734375 25.332031 10.804688 C 25.578125 10.449219 25.886719 10.214844 26.148438 10.074219 C 26.507812 9.875 26.808594 9.796875 27.039062 9.761719 C 27.496094 9.691406 27.683594 9.789062 27.710938 9.910156 C 27.746094 10.039062 27.605469 10.179688 27.257812 10.386719 C 27.085938 10.492188 26.863281 10.625 26.613281 10.800781 C 26.4375 10.933594 26.257812 11.097656 26.113281 11.320312 C 26.28125 11.445312 26.417969 11.5625 26.519531 11.644531 C 26.5625 11.691406 26.601562 11.726562 26.632812 11.753906 C 26.675781 11.726562 26.722656 11.703125 26.765625 11.683594 C 26.851562 11.648438 26.933594 11.617188 27.011719 11.589844 C 27.324219 11.503906 27.558594 11.492188 27.738281 11.507812 C 28.09375 11.539062 28.222656 11.660156 28.234375 11.785156 C 28.246094 11.917969 28.125 12.035156 27.84375 12.167969 C 27.703125 12.230469 27.527344 12.300781 27.332031 12.394531 C 27.695312 12.359375 28.058594 12.339844 28.425781 12.324219 C 29.75 12.292969 31.109375 12.398438 32.460938 12.710938 C 32.984375 12.832031 33.507812 12.988281 34.015625 13.183594 C 34.027344 13.097656 34.042969 13.011719 34.070312 12.921875 C 34.070312 12.914062 34.097656 12.863281 34.117188 12.765625 Z M 35.253906 31.085938 C 35.285156 31.050781 35.3125 31.019531 35.34375 30.984375 C 35.171875 30.867188 35.035156 30.757812 34.9375 30.652344 C 34.886719 30.59375 34.84375 30.542969 34.8125 30.488281 C 34.585938 30.671875 34.347656 30.816406 34.117188 30.980469 C 33.582031 31.339844 33.035156 31.671875 32.492188 31.980469 C 30.300781 33.214844 28.0625 34.105469 25.894531 34.695312 C 24.808594 34.992188 23.738281 35.199219 22.695312 35.324219 C 21.652344 35.441406 20.621094 35.488281 19.65625 35.410156 C 19.179688 35.378906 18.714844 35.328125 18.265625 35.273438 C 18.285156 35.414062 18.289062 35.574219 18.273438 35.769531 C 18.273438 35.769531 18.273438 35.773438 18.273438 35.777344 C 18.292969 35.78125 18.484375 35.835938 18.847656 35.9375 C 19.234375 36.035156 19.824219 36.160156 20.617188 36.242188 C 22.199219 36.410156 24.65625 36.367188 27.710938 35.53125 C 28.476562 35.328125 29.175781 35.074219 29.835938 34.832031 C 30.5 34.59375 31.085938 34.339844 31.621094 34.074219 C 32.6875 33.546875 33.492188 32.984375 34.0625 32.449219 C 34.347656 32.195312 34.550781 31.957031 34.746094 31.710938 C 34.84375 31.589844 34.933594 31.476562 35.015625 31.375 C 35.09375 31.269531 35.175781 31.171875 35.253906 31.085938 Z M 38.207031 22.949219 C 38.273438 22.613281 38.3125 22.273438 38.332031 21.933594 C 37.714844 21.519531 37.199219 21.339844 36.898438 21.171875 C 36.851562 21.148438 36.8125 21.109375 36.769531 21.089844 L 36.703125 21.386719 L 36.707031 21.328125 L 36.703125 21.328125 L 36.683594 21.507812 L 36.703125 21.664062 C 36.710938 21.804688 36.726562 21.960938 36.699219 22.082031 C 36.675781 22.210938 36.667969 22.355469 36.621094 22.46875 C 36.476562 22.960938 36.25 23.402344 36.003906 23.835938 C 35.910156 23.992188 35.820312 24.15625 35.726562 24.320312 C 35.820312 24.285156 35.964844 24.269531 36.175781 24.285156 C 36.515625 24.328125 37.042969 24.449219 37.730469 24.820312 C 37.9375 24.21875 38.101562 23.59375 38.207031 22.949219 Z M 38.363281 20.898438 C 38.363281 20.808594 38.363281 20.726562 38.359375 20.640625 C 38.320312 19.859375 38.195312 19.074219 37.964844 18.304688 C 37.859375 17.9375 37.847656 17.488281 37.4375 17.441406 C 37.152344 17.410156 36.875 17.507812 36.59375 17.496094 C 36.433594 17.488281 36.386719 17.417969 36.316406 17.3125 C 36.246094 17.203125 36.160156 17.070312 36.3125 16.894531 C 36.445312 16.753906 36.832031 16.582031 37.136719 16.539062 C 37.070312 16.4375 37 16.339844 36.921875 16.253906 C 36.457031 15.65625 35.871094 15.167969 35.230469 14.773438 C 35.230469 14.773438 35.226562 14.773438 35.21875 14.769531 C 34.949219 15.019531 34.707031 15.105469 34.542969 15.152344 C 34.3125 15.191406 34.191406 15.128906 34.125 15.015625 C 34.0625 14.902344 34.066406 14.761719 34.183594 14.59375 C 34.226562 14.511719 34.300781 14.425781 34.386719 14.328125 C 33.878906 14.089844 33.355469 13.898438 32.820312 13.75 C 32.734375 13.917969 32.636719 14.039062 32.546875 14.101562 C 32.378906 14.21875 32.253906 14.203125 32.144531 14.128906 C 32.035156 14.058594 31.96875 13.941406 31.960938 13.789062 C 31.953125 13.714844 31.960938 13.636719 31.972656 13.546875 C 31.671875 13.484375 31.371094 13.429688 31.070312 13.390625 C 30.796875 13.355469 30.527344 13.328125 30.257812 13.304688 C 30.242188 13.363281 30.222656 13.410156 30.199219 13.457031 C 30.101562 13.613281 29.976562 13.636719 29.847656 13.609375 C 29.648438 13.5625 29.53125 13.453125 29.425781 13.257812 C 28.625 13.238281 27.839844 13.277344 27.082031 13.371094 C 27.089844 13.4375 27.097656 13.503906 27.101562 13.5625 C 27.101562 13.703125 27.070312 13.820312 27.039062 13.90625 C 26.964844 14.074219 26.851562 14.128906 26.722656 14.128906 C 26.59375 14.128906 26.472656 14.074219 26.375 13.953125 C 26.324219 13.890625 26.289062 13.8125 26.25 13.710938 C 26.222656 13.652344 26.191406 13.582031 26.167969 13.507812 C 25.757812 13.585938 25.351562 13.675781 24.964844 13.792969 C 24.804688 13.835938 24.652344 13.878906 24.5 13.929688 C 24.511719 14.074219 24.488281 14.179688 24.460938 14.261719 C 24.398438 14.398438 24.292969 14.472656 24.167969 14.496094 C 24.039062 14.519531 23.914062 14.496094 23.808594 14.390625 C 23.753906 14.34375 23.703125 14.265625 23.660156 14.179688 C 23.46875 14.238281 23.273438 14.292969 23.085938 14.351562 C 22.601562 14.503906 22.132812 14.660156 21.667969 14.820312 C 21.667969 14.859375 21.667969 14.902344 21.65625 14.929688 C 21.609375 15.128906 21.476562 15.171875 21.351562 15.171875 C 21.21875 15.175781 21.105469 15.121094 21.007812 15.074219 C 20.996094 15.070312 20.988281 15.066406 20.976562 15.058594 C 20.433594 15.253906 19.90625 15.449219 19.390625 15.65625 C 19.429688 15.890625 19.332031 16.039062 19.167969 16.128906 C 18.984375 16.226562 18.78125 16.21875 18.585938 15.984375 C 17.875 16.28125 17.195312 16.59375 16.550781 16.917969 C 16.375 17.003906 16.203125 17.09375 16.035156 17.179688 C 16.042969 17.195312 16.0625 17.203125 16.066406 17.214844 C 16.191406 17.394531 16.164062 17.523438 16.085938 17.625 C 16.003906 17.726562 15.878906 17.789062 15.738281 17.792969 C 15.59375 17.804688 15.425781 17.777344 15.105469 17.683594 C 14.527344 18.015625 13.980469 18.355469 13.46875 18.703125 C 13.480469 18.835938 13.417969 18.917969 13.324219 18.980469 C 13.214844 19.050781 13.085938 19.09375 13.007812 19.128906 C 12.945312 19.152344 12.890625 19.15625 12.820312 19.148438 C 12.433594 19.425781 12.070312 19.707031 11.722656 19.988281 C 11.5 20.160156 11.300781 20.335938 11.109375 20.515625 C 11.289062 20.65625 11.328125 20.789062 11.289062 20.910156 C 11.25 21.03125 11.132812 21.121094 10.910156 21.144531 C 10.800781 21.160156 10.664062 21.152344 10.492188 21.132812 C 10.480469 21.132812 10.464844 21.128906 10.449219 21.128906 C 10.285156 21.292969 10.121094 21.453125 9.964844 21.609375 C 9.652344 21.929688 9.375 22.246094 9.117188 22.5625 C 9.265625 22.597656 9.386719 22.644531 9.476562 22.691406 C 9.746094 22.835938 9.8125 22.976562 9.777344 23.101562 C 9.746094 23.226562 9.613281 23.316406 9.351562 23.34375 C 9.152344 23.382812 8.867188 23.371094 8.492188 23.410156 C 8.058594 24.042969 7.734375 24.648438 7.472656 25.199219 C 7.5625 25.207031 7.652344 25.21875 7.734375 25.234375 C 8.015625 25.285156 8.234375 25.332031 8.394531 25.402344 C 8.71875 25.546875 8.816406 25.683594 8.789062 25.808594 C 8.757812 25.9375 8.609375 26.03125 8.296875 26.0625 C 8.140625 26.078125 7.9375 26.101562 7.671875 26.097656 C 7.503906 26.101562 7.304688 26.101562 7.078125 26.089844 C 6.785156 26.808594 6.589844 27.382812 6.5 27.734375 C 6.476562 27.828125 6.460938 27.910156 6.445312 27.976562 C 6.613281 27.863281 6.773438 27.757812 6.933594 27.671875 C 7.316406 27.457031 7.648438 27.324219 7.921875 27.28125 C 8.1875 27.222656 8.378906 27.246094 8.5 27.277344 C 8.621094 27.308594 8.675781 27.359375 8.683594 27.425781 C 8.6875 27.492188 8.65625 27.558594 8.5625 27.636719 C 8.476562 27.714844 8.335938 27.785156 8.144531 27.90625 C 7.953125 28.015625 7.714844 28.175781 7.40625 28.398438 C 7.160156 28.574219 6.871094 28.8125 6.488281 29.070312 C 6.515625 29.128906 6.539062 29.179688 6.570312 29.234375 C 6.660156 29.40625 6.78125 29.558594 6.894531 29.699219 C 7.207031 29.835938 7.582031 30.039062 8.003906 30.320312 C 8.027344 30.292969 8.046875 30.265625 8.070312 30.238281 C 8.238281 30.058594 8.382812 29.933594 8.5 29.855469 C 8.734375 29.703125 8.894531 29.695312 8.996094 29.773438 C 9.097656 29.855469 9.125 30.003906 9.015625 30.277344 C 8.964844 30.429688 8.84375 30.613281 8.71875 30.832031 C 8.800781 30.890625 8.949219 31.007812 9.191406 31.191406 C 9.445312 31.378906 9.789062 31.648438 10.226562 31.941406 C 10.679688 31.019531 10.984375 30.785156 11.183594 30.867188 C 11.394531 30.957031 11.429688 31.363281 11.019531 32.425781 C 11.3125 32.589844 11.644531 32.75 12.003906 32.886719 C 12.242188 32.96875 12.496094 33.058594 12.753906 33.113281 C 12.820312 33.128906 12.886719 33.144531 12.953125 33.160156 C 13.027344 33.175781 13.105469 33.1875 13.1875 33.199219 C 13.21875 33.207031 13.257812 33.214844 13.296875 33.222656 C 13.375 33.097656 13.457031 32.980469 13.53125 32.875 C 13.628906 32.726562 13.722656 32.59375 13.804688 32.476562 C 13.960938 32.238281 14.101562 32.066406 14.199219 31.929688 C 14.394531 31.65625 14.554688 31.5625 14.675781 31.597656 C 14.804688 31.632812 14.871094 31.792969 14.8125 32.191406 C 14.78125 32.386719 14.6875 32.621094 14.558594 32.914062 C 14.484375 33.054688 14.402344 33.203125 14.304688 33.371094 C 14.300781 33.382812 14.292969 33.394531 14.285156 33.40625 C 15.121094 33.566406 16.027344 33.761719 17.003906 33.941406 C 17.011719 33.902344 17.019531 33.863281 17.027344 33.828125 C 17.078125 33.570312 17.144531 33.367188 17.191406 33.21875 C 17.292969 32.917969 17.417969 32.796875 17.546875 32.796875 C 17.675781 32.796875 17.785156 32.917969 17.855469 33.265625 C 17.894531 33.441406 17.894531 33.660156 17.886719 33.941406 C 17.886719 33.988281 17.878906 34.039062 17.878906 34.089844 C 17.972656 34.105469 18.0625 34.121094 18.152344 34.132812 C 18.910156 34.253906 19.707031 34.335938 20.539062 34.359375 C 20.691406 34.097656 20.769531 33.820312 20.804688 33.578125 C 20.835938 33.296875 20.84375 33.0625 20.839844 32.878906 C 20.84375 32.695312 20.84375 32.558594 20.867188 32.464844 C 20.886719 32.367188 20.925781 32.304688 20.988281 32.273438 C 21.046875 32.246094 21.117188 32.257812 21.203125 32.324219 C 21.292969 32.390625 21.398438 32.515625 21.488281 32.730469 C 21.585938 32.9375 21.664062 33.234375 21.667969 33.632812 C 21.667969 33.84375 21.644531 34.089844 21.5625 34.351562 C 22.28125 34.320312 23.035156 34.242188 23.804688 34.101562 C 24.183594 34.035156 24.574219 33.957031 24.960938 33.867188 C 24.992188 33.429688 24.921875 33.085938 24.914062 32.851562 C 24.894531 32.542969 24.929688 32.386719 25.054688 32.328125 C 25.164062 32.273438 25.335938 32.324219 25.542969 32.625 C 25.640625 32.773438 25.746094 32.996094 25.820312 33.296875 C 25.84375 33.398438 25.859375 33.515625 25.871094 33.640625 C 26.828125 33.386719 27.804688 33.0625 28.796875 32.667969 C 28.773438 32.199219 28.691406 31.953125 28.675781 31.726562 C 28.640625 31.476562 28.699219 31.351562 28.808594 31.28125 C 28.917969 31.21875 29.066406 31.222656 29.28125 31.453125 C 29.410156 31.609375 29.570312 31.929688 29.664062 32.308594 C 29.914062 32.199219 30.164062 32.085938 30.417969 31.96875 C 31.011719 31.6875 31.609375 31.378906 32.199219 31.042969 C 32.105469 30.855469 32.019531 30.679688 31.960938 30.53125 C 31.851562 30.308594 31.773438 30.136719 31.730469 29.988281 C 31.636719 29.699219 31.671875 29.535156 31.777344 29.460938 C 31.886719 29.382812 32.046875 29.414062 32.285156 29.621094 C 32.402344 29.730469 32.546875 29.875 32.703125 30.085938 C 32.792969 30.222656 32.894531 30.386719 33 30.570312 C 33.28125 30.398438 33.558594 30.214844 33.835938 30.027344 C 34.40625 29.652344 34.898438 29.222656 35.386719 28.742188 C 35.429688 28.695312 35.464844 28.648438 35.503906 28.605469 C 35.367188 28.488281 35.25 28.382812 35.144531 28.285156 C 34.933594 28.113281 34.765625 27.976562 34.652344 27.851562 C 34.417969 27.605469 34.371094 27.433594 34.4375 27.324219 C 34.503906 27.210938 34.667969 27.175781 35.007812 27.289062 C 35.175781 27.34375 35.386719 27.433594 35.640625 27.574219 C 35.777344 27.667969 35.929688 27.773438 36.097656 27.894531 C 36.296875 27.636719 36.484375 27.363281 36.65625 27.078125 C 36.925781 26.644531 37.167969 26.183594 37.378906 25.707031 C 36.726562 25.316406 36.253906 25.105469 35.96875 24.917969 C 35.738281 24.78125 35.625 24.664062 35.589844 24.558594 C 35.488281 24.75 35.390625 24.9375 35.285156 25.125 C 34.738281 26.113281 34.113281 27.019531 33.425781 27.726562 C 32.738281 28.441406 32.003906 28.933594 31.398438 29.285156 L 31.136719 29.433594 C 31.011719 29.632812 30.851562 29.808594 30.679688 29.933594 C 30.382812 30.152344 30.074219 30.28125 29.769531 30.390625 C 29.164062 30.609375 28.566406 30.738281 28.023438 30.945312 C 27.441406 31.160156 26.84375 31.386719 26.238281 31.542969 C 25.933594 31.625 25.621094 31.6875 25.300781 31.722656 C 24.984375 31.757812 24.644531 31.765625 24.277344 31.65625 L 24.140625 31.617188 C 24.085938 31.589844 24.03125 31.5625 23.972656 31.53125 C 23.96875 31.527344 23.960938 31.519531 23.953125 31.519531 C 23.914062 31.617188 23.847656 31.714844 23.765625 31.808594 L 23.75 31.824219 C 23.609375 31.972656 23.453125 32.054688 23.316406 32.105469 C 23.167969 32.164062 23.03125 32.191406 22.894531 32.210938 C 22.625 32.253906 22.371094 32.257812 22.113281 32.257812 C 21.625 32.238281 21.117188 32.226562 20.585938 32.207031 C 19.738281 32.167969 18.914062 32.074219 18.179688 31.886719 C 17.449219 31.703125 16.820312 31.421875 16.34375 31.136719 L 16.132812 31.011719 C 16.042969 31.03125 15.953125 31.058594 15.871094 31.066406 C 15.664062 31.09375 15.464844 31.089844 15.273438 31.078125 C 15.175781 31.066406 15.082031 31.058594 14.984375 31.046875 C 14.890625 31.03125 14.796875 31.011719 14.703125 31 C 14.523438 30.96875 14.339844 30.9375 14.160156 30.90625 C 13.789062 30.832031 13.410156 30.757812 13.019531 30.683594 C 11.808594 30.449219 10.886719 30.039062 9.8125 29.503906 C 9.664062 29.429688 9.511719 29.347656 9.351562 29.25 C 9.269531 29.199219 9.1875 29.144531 9.097656 29.074219 C 9.054688 29.042969 8.996094 28.992188 8.945312 28.941406 C 8.914062 28.90625 8.878906 28.867188 8.851562 28.828125 C 8.824219 28.789062 8.785156 28.707031 8.757812 28.632812 C 8.75 28.613281 8.742188 28.589844 8.738281 28.570312 C 8.71875 28.476562 8.695312 28.375 8.699219 28.304688 C 8.703125 27.910156 8.820312 27.664062 8.925781 27.433594 C 9.03125 27.207031 9.152344 27.011719 9.269531 26.835938 C 9.515625 26.480469 9.765625 26.195312 9.996094 25.976562 C 10.449219 25.53125 10.824219 25.339844 10.921875 25.445312 C 11.027344 25.550781 10.867188 25.894531 10.589844 26.425781 C 10.449219 26.6875 10.28125 26.996094 10.109375 27.332031 C 10.027344 27.5 9.9375 27.675781 9.871094 27.847656 C 9.800781 28.007812 9.761719 28.1875 9.757812 28.261719 C 9.800781 28.300781 9.859375 28.347656 9.917969 28.386719 C 10.042969 28.476562 10.175781 28.5625 10.304688 28.644531 C 10.4375 28.734375 10.5625 28.816406 10.683594 28.898438 C 10.707031 28.914062 10.734375 28.933594 10.757812 28.949219 C 10.769531 28.933594 10.785156 28.917969 10.796875 28.902344 C 10.941406 28.582031 11.128906 28.316406 11.292969 28.09375 C 11.582031 27.714844 11.867188 27.441406 12.101562 27.21875 C 12.574219 26.777344 12.859375 26.53125 12.957031 26.589844 C 13.050781 26.648438 12.917969 27.039062 12.566406 27.59375 C 12.402344 27.871094 12.175781 28.191406 11.980469 28.550781 C 11.851562 28.785156 11.734375 29.035156 11.65625 29.292969 C 12.15625 29.402344 12.679688 29.519531 13.230469 29.648438 C 13.621094 29.730469 14 29.8125 14.363281 29.890625 C 14.550781 29.933594 14.726562 29.972656 14.902344 30.011719 C 14.988281 30.03125 15.066406 30.050781 15.144531 30.070312 C 15.226562 30.082031 15.300781 30.09375 15.375 30.109375 C 15.667969 30.152344 15.941406 30.152344 16.039062 30.097656 C 16.09375 30.082031 16.128906 30.03125 16.179688 29.96875 C 16.199219 29.925781 16.21875 29.886719 16.238281 29.839844 C 16.253906 29.785156 16.269531 29.734375 16.285156 29.6875 C 16.382812 29.238281 16.410156 28.796875 16.46875 28.507812 C 16.523438 28.21875 16.585938 28.054688 16.660156 28.050781 C 16.734375 28.050781 16.808594 28.207031 16.878906 28.5 C 16.945312 28.789062 17.039062 29.195312 17.023438 29.789062 C 17.019531 29.863281 17.007812 29.945312 16.996094 30.027344 C 16.980469 30.109375 16.953125 30.199219 16.925781 30.292969 C 16.921875 30.308594 16.910156 30.320312 16.90625 30.339844 C 16.90625 30.414062 16.90625 30.492188 16.898438 30.574219 C 17.320312 30.710938 17.816406 30.847656 18.382812 30.941406 C 19.050781 31.058594 19.8125 31.113281 20.636719 31.152344 C 20.898438 31.160156 21.15625 31.171875 21.410156 31.1875 C 21.660156 31.207031 21.90625 31.222656 22.148438 31.238281 C 22.789062 31.285156 23.265625 31.246094 23.183594 30.449219 C 23.140625 30.125 23.085938 29.824219 23.054688 29.574219 C 22.996094 29.1875 23.011719 28.910156 23.066406 28.789062 C 23.0625 28.75 23.058594 28.707031 23.058594 28.664062 C 23.03125 27.828125 23.066406 27.15625 23.09375 26.695312 C 23.109375 26.460938 23.125 26.289062 23.148438 26.164062 C 23.167969 26.039062 23.191406 25.972656 23.230469 25.964844 C 23.265625 25.960938 23.308594 26.019531 23.363281 26.136719 C 23.40625 26.253906 23.457031 26.4375 23.503906 26.667969 C 23.601562 27.125 23.683594 27.796875 23.800781 28.601562 C 23.863281 29.003906 23.925781 29.449219 24.035156 29.886719 C 24.09375 30.097656 24.152344 30.335938 24.242188 30.492188 C 24.261719 30.546875 24.285156 30.558594 24.300781 30.585938 L 24.308594 30.597656 L 24.375 30.65625 C 24.394531 30.671875 24.433594 30.707031 24.445312 30.707031 C 24.453125 30.703125 24.460938 30.703125 24.464844 30.703125 C 24.472656 30.703125 24.476562 30.703125 24.480469 30.710938 L 24.542969 30.71875 C 24.703125 30.761719 24.933594 30.761719 25.179688 30.71875 C 25.429688 30.6875 25.691406 30.625 25.960938 30.546875 C 26.503906 30.390625 27.058594 30.175781 27.660156 29.953125 C 28.296875 29.714844 28.910156 29.59375 29.425781 29.417969 C 29.683594 29.328125 29.921875 29.230469 30.085938 29.113281 C 30.257812 28.992188 30.351562 28.878906 30.398438 28.726562 C 30.507812 28.417969 30.371094 27.953125 30.234375 27.480469 C 30.09375 27.085938 29.921875 26.683594 29.734375 26.320312 C 29.367188 25.601562 29.035156 25.003906 28.863281 24.5625 C 28.691406 24.121094 28.636719 23.855469 28.707031 23.828125 C 28.773438 23.796875 28.945312 23.992188 29.21875 24.359375 C 29.496094 24.726562 29.910156 25.242188 30.382812 25.949219 C 30.617188 26.300781 30.851562 26.710938 31.070312 27.21875 C 31.121094 27.339844 31.152344 27.445312 31.199219 27.570312 L 31.257812 27.75 L 31.277344 27.796875 L 31.289062 27.832031 L 31.296875 27.859375 L 31.320312 27.972656 C 31.355469 28.097656 31.375 28.238281 31.386719 28.390625 C 31.808594 28.03125 32.273438 27.609375 32.710938 27.082031 C 33.292969 26.402344 33.835938 25.554688 34.367188 24.613281 C 34.484375 24.390625 34.605469 24.171875 34.722656 23.960938 L 34.78125 23.851562 L 34.828125 23.777344 L 34.925781 23.617188 C 34.988281 23.511719 35.050781 23.402344 35.117188 23.300781 C 35.621094 22.480469 36.132812 21.355469 35.0625 20.808594 C 34.527344 20.539062 34.003906 20.425781 33.652344 20.335938 C 33.285156 20.253906 32.96875 20.054688 32.605469 19.980469 C 32.503906 19.960938 31.71875 19.875 31.726562 19.707031 C 31.734375 19.609375 32.207031 19.453125 33.109375 19.472656 C 33.828125 19.492188 34.808594 19.664062 35.855469 20.101562 C 35.835938 19.609375 35.730469 19.09375 35.542969 18.589844 C 35.222656 17.730469 34.71875 16.980469 34.148438 16.4375 C 33.582031 15.886719 32.949219 15.550781 32.378906 15.40625 C 31.808594 15.265625 31.3125 15.308594 30.960938 15.355469 C 30.789062 15.382812 30.652344 15.40625 30.550781 15.417969 C 30.449219 15.425781 30.386719 15.414062 30.371094 15.382812 C 30.355469 15.351562 30.382812 15.296875 30.460938 15.222656 C 30.535156 15.148438 30.660156 15.054688 30.835938 14.964844 C 31.183594 14.785156 31.761719 14.601562 32.5 14.667969 C 33.230469 14.742188 34.074219 15.089844 34.796875 15.714844 C 35.527344 16.328125 36.148438 17.199219 36.53125 18.222656 C 36.8125 18.984375 36.9375 19.785156 36.859375 20.542969 C 36.921875 20.539062 36.980469 20.539062 37.058594 20.539062 C 37.359375 20.570312 37.8125 20.636719 38.363281 20.898438 Z M 45.804688 37.339844 C 46.011719 36.671875 46.132812 36.007812 46.128906 35.375 C 46.132812 34.742188 46.035156 34.140625 45.828125 33.617188 C 45.609375 33.101562 45.308594 32.609375 44.984375 32.167969 C 44.332031 31.273438 43.617188 30.535156 42.96875 29.886719 C 42.304688 29.246094 41.707031 28.699219 41.179688 28.222656 C 40.65625 27.75 40.21875 27.324219 39.878906 27.015625 C 39.710938 26.855469 39.558594 26.726562 39.429688 26.617188 C 39.300781 26.507812 39.191406 26.417969 39.101562 26.351562 C 38.925781 26.214844 38.839844 26.148438 38.839844 26.148438 C 38.644531 26.015625 38.488281 25.878906 38.347656 25.769531 C 38.257812 25.992188 38.164062 26.207031 38.0625 26.421875 C 37.460938 27.675781 36.664062 28.8125 35.683594 29.746094 C 35.65625 29.777344 35.625 29.804688 35.59375 29.832031 C 35.863281 29.882812 36.199219 30.003906 36.59375 30.234375 C 36.59375 30.234375 36.667969 30.285156 36.8125 30.378906 C 36.980469 30.226562 37.152344 30.117188 37.3125 30.042969 C 37.5625 29.933594 37.777344 29.890625 37.9375 29.886719 C 38.269531 29.886719 38.390625 30.015625 38.402344 30.136719 C 38.414062 30.273438 38.320312 30.386719 38.121094 30.53125 C 37.984375 30.632812 37.78125 30.75 37.554688 30.957031 C 37.644531 31.035156 37.738281 31.128906 37.835938 31.234375 C 37.925781 31.332031 38.023438 31.441406 38.121094 31.566406 C 38.171875 31.539062 38.222656 31.507812 38.269531 31.488281 C 38.378906 31.453125 38.480469 31.417969 38.578125 31.386719 C 38.964844 31.289062 39.265625 31.289062 39.488281 31.320312 C 39.933594 31.378906 40.078125 31.527344 40.070312 31.648438 C 40.0625 31.789062 39.898438 31.875 39.53125 31.984375 C 39.347656 32.039062 39.117188 32.101562 38.851562 32.210938 C 38.761719 32.242188 38.671875 32.292969 38.585938 32.34375 C 38.683594 32.558594 38.769531 32.796875 38.824219 33.066406 C 38.867188 33.28125 38.890625 33.511719 38.886719 33.746094 C 39.148438 33.671875 39.382812 33.625 39.601562 33.597656 C 40.042969 33.546875 40.402344 33.5625 40.667969 33.617188 C 40.800781 33.648438 40.914062 33.679688 40.996094 33.714844 C 41.089844 33.753906 41.160156 33.800781 41.210938 33.835938 C 41.3125 33.917969 41.339844 33.988281 41.320312 34.046875 C 41.300781 34.113281 41.238281 34.160156 41.128906 34.195312 C 41.074219 34.210938 41.007812 34.222656 40.929688 34.234375 C 40.84375 34.253906 40.75 34.269531 40.640625 34.28125 C 40.417969 34.316406 40.125 34.367188 39.757812 34.453125 C 39.460938 34.523438 39.109375 34.632812 38.742188 34.800781 C 38.710938 34.902344 38.675781 35.007812 38.644531 35.113281 C 38.59375 35.296875 38.527344 35.46875 38.460938 35.644531 C 38.570312 35.636719 38.675781 35.625 38.777344 35.621094 C 39.1875 35.59375 39.601562 35.59375 39.859375 35.632812 C 40.117188 35.660156 40.292969 35.722656 40.398438 35.785156 C 40.503906 35.847656 40.546875 35.914062 40.539062 35.976562 C 40.53125 36.042969 40.460938 36.101562 40.355469 36.152344 C 40.25 36.199219 40.074219 36.242188 39.84375 36.296875 C 39.617188 36.34375 39.28125 36.40625 38.882812 36.480469 C 38.636719 36.523438 38.425781 36.582031 38.078125 36.617188 C 38.007812 36.792969 37.9375 36.976562 37.878906 37.15625 C 37.792969 37.386719 37.742188 37.621094 37.683594 37.867188 C 37.640625 38.121094 37.601562 38.382812 37.558594 38.648438 C 37.558594 38.667969 37.558594 38.683594 37.558594 38.703125 C 37.804688 38.574219 38.035156 38.460938 38.246094 38.359375 C 38.714844 38.15625 39.082031 38.003906 39.382812 37.933594 C 39.996094 37.800781 40.242188 37.835938 40.277344 37.960938 C 40.316406 38.082031 40.140625 38.273438 39.640625 38.550781 C 39.390625 38.695312 39.066406 38.894531 38.644531 39.128906 C 38.332031 39.316406 37.957031 39.535156 37.515625 39.78125 C 37.515625 39.992188 37.515625 40.199219 37.515625 40.414062 C 37.519531 40.726562 37.515625 41.0625 37.53125 41.375 C 37.53125 41.453125 37.539062 41.539062 37.542969 41.621094 C 37.875 41.480469 38.171875 41.332031 38.425781 41.195312 C 38.867188 40.957031 39.203125 40.769531 39.460938 40.628906 C 39.996094 40.351562 40.25 40.300781 40.328125 40.410156 C 40.40625 40.511719 40.296875 40.746094 39.851562 41.171875 C 39.625 41.386719 39.308594 41.644531 38.871094 41.9375 C 38.535156 42.160156 38.121094 42.402344 37.597656 42.605469 C 37.640625 43.140625 37.699219 43.679688 37.808594 44.222656 C 38.46875 44.03125 39.035156 43.742188 39.472656 43.472656 C 39.730469 43.308594 39.964844 43.15625 40.160156 43.015625 C 40.347656 42.863281 40.535156 42.746094 40.671875 42.625 C 40.808594 42.5 40.933594 42.402344 41.039062 42.324219 C 41.132812 42.234375 41.21875 42.167969 41.289062 42.117188 C 41.429688 42.015625 41.527344 41.992188 41.582031 42.027344 C 41.636719 42.0625 41.644531 42.152344 41.585938 42.332031 C 41.558594 42.417969 41.511719 42.527344 41.445312 42.65625 C 41.367188 42.78125 41.265625 42.921875 41.144531 43.085938 C 41.023438 43.257812 40.851562 43.414062 40.660156 43.613281 C 40.464844 43.796875 40.230469 43.996094 39.953125 44.195312 C 39.808594 44.289062 39.65625 44.390625 39.496094 44.496094 C 39.332031 44.59375 39.148438 44.6875 38.960938 44.785156 C 38.769531 44.886719 38.550781 44.957031 38.332031 45.046875 C 38.242188 45.082031 38.144531 45.109375 38.050781 45.136719 C 38.082031 45.230469 38.109375 45.328125 38.152344 45.417969 C 38.285156 45.71875 38.472656 45.96875 38.640625 46.039062 C 38.734375 46.097656 39.09375 46.042969 39.417969 45.894531 C 39.753906 45.746094 40.09375 45.542969 40.429688 45.3125 C 40.769531 45.085938 41.097656 44.828125 41.421875 44.558594 C 41.742188 44.28125 42.066406 43.980469 42.328125 43.679688 C 42.445312 43.546875 42.574219 43.347656 42.699219 43.175781 C 42.828125 43.007812 42.925781 42.816406 43.042969 42.640625 C 43.261719 42.277344 43.460938 41.902344 43.660156 41.527344 C 44.046875 40.777344 44.414062 40.023438 44.847656 39.316406 C 44.949219 39.144531 45.050781 38.976562 45.152344 38.808594 C 45.238281 38.652344 45.328125 38.492188 45.40625 38.328125 C 45.570312 38.003906 45.691406 37.667969 45.804688 37.339844 Z M 53.078125 11.300781 C 53.191406 11.65625 53.210938 12.023438 53.183594 12.371094 C 53.148438 12.785156 53.046875 13.171875 52.917969 13.542969 C 52.921875 13.550781 52.921875 13.5625 52.925781 13.570312 L 52.90625 13.578125 C 52.820312 13.816406 52.726562 14.050781 52.617188 14.269531 C 52.34375 14.847656 52.007812 15.375 51.648438 15.867188 C 51.285156 16.359375 50.886719 16.816406 50.449219 17.226562 C 50.226562 17.414062 50.011719 17.613281 49.789062 17.796875 C 49.5625 17.96875 49.339844 18.148438 49.109375 18.308594 C 48.195312 18.953125 47.261719 19.453125 46.375 19.882812 C 45.496094 20.304688 44.644531 20.675781 43.859375 20.957031 C 42.316406 21.515625 41.140625 22.046875 40.554688 22.597656 C 40.246094 22.839844 40.027344 23.117188 39.878906 23.28125 C 39.804688 23.363281 39.742188 23.433594 39.703125 23.484375 C 39.667969 23.53125 39.644531 23.554688 39.644531 23.554688 C 39.484375 23.738281 39.339844 23.886719 39.191406 23.996094 C 39.078125 24.085938 38.976562 24.144531 38.875 24.1875 C 38.835938 24.339844 38.792969 24.484375 38.75 24.636719 C 39.003906 24.71875 39.296875 24.878906 39.617188 25.105469 C 39.617188 25.105469 39.746094 25.21875 39.992188 25.421875 C 40.234375 25.628906 40.566406 25.941406 40.96875 26.347656 C 41.742188 27.15625 42.964844 28.238281 44.367188 29.746094 C 45.054688 30.515625 45.792969 31.378906 46.402344 32.484375 C 46.472656 32.625 46.550781 32.765625 46.621094 32.910156 C 46.695312 33.054688 46.746094 33.214844 46.808594 33.371094 C 46.910156 33.691406 46.996094 34.019531 47.042969 34.363281 C 47.136719 35.039062 47.121094 35.738281 47.003906 36.433594 C 46.878906 37.128906 46.667969 37.816406 46.367188 38.480469 C 46.210938 38.808594 46.042969 39.136719 45.84375 39.457031 C 45.65625 39.765625 45.472656 40.039062 45.304688 40.355469 C 44.605469 41.585938 44.027344 42.988281 43.011719 44.265625 C 42.464844 44.878906 41.886719 45.363281 41.265625 45.828125 C 40.957031 46.058594 40.640625 46.273438 40.300781 46.464844 C 39.964844 46.65625 39.609375 46.832031 39.1875 46.929688 C 38.980469 46.980469 38.742188 47.007812 38.472656 46.945312 C 38.195312 46.878906 37.992188 46.742188 37.820312 46.574219 C 37.496094 46.246094 37.328125 45.878906 37.1875 45.527344 C 36.925781 44.816406 36.808594 44.121094 36.714844 43.445312 C 36.539062 42.09375 36.515625 40.824219 36.496094 39.625 C 36.488281 39.324219 36.511719 39.015625 36.519531 38.71875 C 36.515625 38.570312 36.539062 38.421875 36.558594 38.273438 C 36.582031 38.125 36.601562 37.976562 36.621094 37.835938 C 36.65625 37.546875 36.734375 37.257812 36.804688 36.988281 C 36.886719 36.722656 36.96875 36.457031 37.0625 36.21875 C 37.238281 35.734375 37.410156 35.300781 37.53125 34.894531 C 37.585938 34.691406 37.648438 34.496094 37.671875 34.3125 C 37.683594 34.222656 37.703125 34.128906 37.714844 34.046875 C 37.714844 33.960938 37.71875 33.878906 37.71875 33.800781 C 37.726562 33.15625 37.429688 32.652344 37.128906 32.300781 C 36.890625 32.019531 36.644531 31.820312 36.441406 31.675781 C 36.351562 31.746094 36.234375 31.863281 36.078125 32.019531 C 35.90625 32.203125 35.695312 32.429688 35.449219 32.691406 C 35.316406 32.828125 35.171875 32.972656 35 33.121094 C 34.832031 33.269531 34.652344 33.394531 34.46875 33.546875 C 33.714844 34.117188 32.742188 34.664062 31.628906 35.128906 C 31.074219 35.375 30.480469 35.585938 29.871094 35.792969 C 29.257812 36.007812 28.621094 36.222656 27.953125 36.398438 C 25.304688 37.144531 22.78125 37.40625 20.933594 37.367188 C 20.011719 37.359375 19.257812 37.25 18.738281 37.183594 C 18.386719 37.117188 18.144531 37.070312 18.019531 37.046875 C 17.960938 37.285156 17.890625 37.554688 17.816406 37.855469 C 17.753906 38.082031 17.671875 38.320312 17.589844 38.574219 C 17.503906 38.832031 17.425781 39.113281 17.316406 39.398438 C 17.203125 39.6875 17.089844 39.988281 16.964844 40.3125 C 16.832031 40.628906 16.6875 40.964844 16.535156 41.308594 C 16.371094 41.65625 16.191406 42.011719 16.007812 42.386719 C 15.902344 42.574219 15.792969 42.765625 15.683594 42.953125 C 15.574219 43.144531 15.464844 43.34375 15.316406 43.542969 C 14.765625 44.320312 14.046875 45.0625 13.089844 45.652344 C 12.609375 45.941406 12.054688 46.179688 11.421875 46.273438 L 11.183594 46.308594 L 10.941406 46.316406 C 10.773438 46.324219 10.609375 46.300781 10.445312 46.28125 C 10.277344 46.257812 10.101562 46.199219 9.933594 46.15625 C 9.773438 46.09375 9.617188 46.015625 9.460938 45.9375 C 8.855469 45.578125 8.433594 45.085938 8.097656 44.59375 C 7.761719 44.101562 7.527344 43.585938 7.320312 43.085938 C 6.925781 42.078125 6.683594 41.121094 6.589844 40.164062 C 6.492188 39.175781 6.722656 38.246094 7.078125 37.507812 C 7.445312 36.757812 7.925781 36.199219 8.382812 35.730469 C 8.628906 35.511719 8.820312 35.292969 9.140625 35.109375 C 9.414062 34.945312 9.648438 34.847656 9.871094 34.75 C 10.300781 34.566406 10.632812 34.425781 10.886719 34.304688 C 11.183594 34.152344 11.351562 34.035156 11.433594 33.972656 C 11.179688 33.875 10.9375 33.773438 10.71875 33.664062 C 9.707031 33.164062 9.03125 32.648438 8.570312 32.328125 C 8.117188 32 7.878906 31.824219 7.878906 31.824219 C 7.765625 31.742188 7.660156 31.660156 7.558594 31.582031 C 7.546875 31.585938 7.53125 31.597656 7.511719 31.601562 C 7.511719 31.601562 7.476562 31.609375 7.402344 31.621094 C 7.328125 31.636719 7.21875 31.660156 7.070312 31.699219 C 6.785156 31.769531 6.363281 31.914062 5.84375 32.105469 C 5.316406 32.300781 4.695312 32.558594 3.976562 32.820312 C 3.617188 32.949219 3.234375 33.074219 2.820312 33.1875 C 2.71875 33.214844 2.609375 33.234375 2.5 33.257812 L 2.335938 33.292969 L 2.105469 33.3125 C 1.058594 33.484375 0.71875 33.285156 0.914062 32.304688 C 0.929688 32.226562 0.960938 32.15625 0.996094 32.085938 L 1.097656 31.875 C 1.132812 31.804688 1.164062 31.722656 1.195312 31.667969 L 1.289062 31.53125 C 1.351562 31.441406 1.402344 31.34375 1.46875 31.265625 C 1.597656 31.097656 1.726562 30.933594 1.863281 30.789062 C 2.394531 30.199219 2.941406 29.757812 3.402344 29.402344 C 3.863281 29.039062 4.25 28.769531 4.515625 28.585938 C 4.78125 28.398438 4.925781 28.296875 4.925781 28.296875 C 4.984375 28.261719 5.042969 28.246094 5.101562 28.238281 C 5.101562 28.210938 5.101562 28.1875 5.105469 28.15625 C 5.105469 28.15625 5.117188 28.074219 5.140625 27.90625 C 5.171875 27.742188 5.222656 27.503906 5.3125 27.21875 C 5.429688 26.847656 5.589844 26.40625 5.8125 25.882812 C 5.734375 25.871094 5.644531 25.859375 5.546875 25.84375 C 5.152344 25.777344 4.570312 25.675781 3.8125 25.457031 C 3.433594 25.347656 3.011719 25.203125 2.546875 24.984375 C 2.429688 24.921875 2.3125 24.871094 2.191406 24.792969 C 2.128906 24.753906 2.066406 24.71875 2.003906 24.675781 C 1.941406 24.628906 1.875 24.578125 1.808594 24.527344 C 1.519531 24.273438 1.367188 23.992188 1.222656 23.71875 C 0.949219 23.160156 0.753906 22.558594 0.621094 21.886719 C 0.558594 21.546875 0.503906 21.199219 0.496094 20.8125 C 0.496094 20.621094 0.503906 20.417969 0.535156 20.207031 C 0.546875 20.101562 0.582031 19.984375 0.609375 19.875 C 0.652344 19.757812 0.699219 19.640625 0.757812 19.53125 C 0.878906 19.308594 1.074219 19.101562 1.265625 18.972656 C 1.460938 18.839844 1.65625 18.75 1.851562 18.675781 C 2.234375 18.542969 2.601562 18.488281 2.945312 18.457031 C 3.636719 18.398438 4.261719 18.4375 4.832031 18.488281 C 5.972656 18.59375 6.914062 18.8125 7.660156 19.003906 C 8.421875 19.199219 9.003906 19.457031 9.378906 19.671875 C 9.761719 19.886719 9.933594 20.042969 9.933594 20.042969 C 10.027344 19.96875 10.109375 19.890625 10.195312 19.816406 C 10.363281 19.671875 10.527344 19.527344 10.699219 19.378906 C 10.871094 19.238281 11.050781 19.101562 11.230469 18.960938 C 11.585938 18.671875 11.972656 18.40625 12.367188 18.128906 C 13.160156 17.589844 14.015625 17.058594 14.933594 16.574219 C 15.851562 16.078125 16.832031 15.617188 17.859375 15.183594 C 19.917969 14.316406 22.179688 13.578125 24.574219 12.90625 C 24.9375 12.800781 25.3125 12.714844 25.691406 12.640625 C 25.683594 12.625 25.675781 12.621094 25.667969 12.605469 C 25.597656 12.527344 25.46875 12.417969 25.300781 12.269531 C 24.957031 11.964844 24.359375 11.597656 23.507812 11.007812 C 23.089844 10.703125 22.601562 10.328125 22.167969 9.761719 C 22.066406 9.617188 21.96875 9.464844 21.871094 9.296875 C 21.792969 9.121094 21.683594 8.941406 21.636719 8.75 C 21.535156 8.402344 21.433594 8.035156 21.40625 7.59375 C 21.398438 7.367188 21.402344 7.121094 21.488281 6.851562 C 21.570312 6.585938 21.773438 6.285156 22.03125 6.128906 C 22.523438 5.816406 23.027344 5.773438 23.492188 5.765625 C 24.433594 5.777344 25.34375 5.980469 26.289062 6.230469 C 26.761719 6.359375 27.210938 6.488281 27.640625 6.613281 C 28.050781 6.730469 28.480469 6.816406 28.894531 6.921875 C 29.726562 7.117188 30.511719 7.332031 31.230469 7.613281 C 31.949219 7.890625 32.589844 8.257812 33.117188 8.675781 C 33.652344 9.089844 34.050781 9.589844 34.347656 10 C 34.964844 10.828125 35.328125 11.652344 35.386719 12.292969 C 35.429688 12.609375 35.394531 12.867188 35.375 13.027344 C 35.34375 13.195312 35.320312 13.277344 35.320312 13.277344 C 35.269531 13.441406 35.203125 13.574219 35.128906 13.679688 C 35.546875 13.898438 35.949219 14.144531 36.332031 14.429688 C 36.570312 14.609375 36.796875 14.804688 37.011719 15.015625 C 37.183594 14.859375 37.441406 14.699219 37.824219 14.554688 C 37.824219 14.554688 37.9375 14.511719 38.164062 14.433594 C 38.382812 14.359375 38.722656 14.21875 39.152344 14.050781 C 39.367188 13.964844 39.601562 13.871094 39.867188 13.769531 C 39.929688 13.738281 39.996094 13.714844 40.0625 13.6875 C 40.125 13.660156 40.179688 13.632812 40.246094 13.601562 C 40.367188 13.542969 40.496094 13.484375 40.628906 13.421875 C 41.140625 13.136719 41.65625 12.714844 42.179688 12.117188 C 42.453125 11.804688 42.734375 11.480469 43.03125 11.144531 C 43.183594 10.96875 43.355469 10.796875 43.519531 10.617188 C 43.597656 10.527344 43.707031 10.445312 43.804688 10.359375 C 43.90625 10.273438 44 10.183594 44.113281 10.109375 C 44.949219 9.460938 46.085938 9.074219 47.242188 9.042969 C 48.398438 8.996094 49.558594 9.234375 50.710938 9.488281 C 51.308594 9.621094 51.980469 9.84375 52.507812 10.363281 C 52.765625 10.617188 52.96875 10.945312 53.078125 11.300781 Z M 51.144531 14.230469 C 51.246094 14.230469 51.121094 14.875 51.074219 14.941406 C 50.957031 15.105469 50.710938 15.21875 50.53125 15.289062 C 50.417969 15.363281 50.28125 15.40625 50.121094 15.386719 C 50.113281 15.386719 50.109375 15.382812 50.101562 15.382812 C 49.988281 15.386719 49.871094 15.378906 49.765625 15.347656 C 49.5625 15.289062 49.371094 15.136719 49.300781 14.929688 C 49.246094 15.019531 49.195312 15.105469 49.144531 15.191406 C 49.089844 15.292969 49.035156 15.386719 48.980469 15.484375 C 48.921875 15.589844 48.886719 15.667969 48.804688 15.796875 L 48.800781 15.804688 L 48.792969 15.816406 C 48.417969 16.253906 47.933594 16.519531 47.460938 16.601562 C 46.992188 16.695312 46.535156 16.578125 46.25 16.363281 C 45.960938 16.140625 45.855469 15.871094 45.789062 15.703125 C 45.757812 15.527344 45.75 15.433594 45.777344 15.421875 C 45.804688 15.410156 45.867188 15.488281 45.949219 15.636719 C 46.050781 15.761719 46.183594 15.960938 46.425781 16.09375 C 46.664062 16.222656 47.003906 16.28125 47.371094 16.175781 C 47.730469 16.085938 48.113281 15.851562 48.386719 15.507812 C 48.386719 15.503906 48.394531 15.496094 48.394531 15.496094 L 48.410156 15.464844 L 48.449219 15.390625 L 48.523438 15.242188 C 48.578125 15.140625 48.636719 15.042969 48.6875 14.9375 C 48.800781 14.730469 48.921875 14.523438 49.058594 14.316406 C 49.171875 14.132812 49.300781 13.957031 49.441406 13.792969 C 49.582031 13.628906 49.738281 13.464844 49.964844 13.339844 C 50.078125 13.28125 50.242188 13.234375 50.414062 13.273438 C 50.585938 13.3125 50.710938 13.433594 50.773438 13.535156 C 50.847656 13.636719 50.894531 13.734375 50.929688 13.828125 C 51.046875 13.789062 51.164062 13.769531 51.269531 13.761719 C 51.457031 13.746094 51.609375 13.746094 51.714844 13.710938 C 51.769531 13.683594 51.800781 13.683594 51.867188 13.628906 C 51.886719 13.613281 51.902344 13.605469 51.917969 13.59375 C 51.710938 13.195312 51.386719 12.867188 51.027344 12.652344 C 50.59375 12.382812 50.097656 12.269531 49.683594 12.316406 C 49.683594 12.316406 49.625 12.335938 49.570312 12.355469 C 49.507812 12.382812 49.445312 12.414062 49.378906 12.441406 C 49.253906 12.503906 49.125 12.570312 49.003906 12.636719 C 48.757812 12.769531 48.523438 12.910156 48.308594 13.054688 C 47.855469 13.359375 47.582031 13.90625 47.117188 14.179688 C 46.71875 14.414062 46.429688 14.046875 46.011719 14.226562 C 45.757812 14.339844 45.511719 14.492188 45.253906 14.617188 C 45.121094 14.675781 44.984375 14.730469 44.832031 14.757812 C 44.683594 14.789062 44.507812 14.78125 44.363281 14.730469 C 44.058594 14.617188 43.925781 14.398438 43.84375 14.246094 C 43.675781 13.925781 43.640625 13.6875 43.621094 13.535156 C 43.609375 13.382812 43.628906 13.308594 43.667969 13.296875 C 43.703125 13.28125 43.765625 13.335938 43.84375 13.457031 C 43.929688 13.578125 44.03125 13.785156 44.214844 14 C 44.296875 14.105469 44.417969 14.199219 44.519531 14.210938 C 44.609375 14.226562 44.757812 14.175781 44.957031 14.054688 C 45.160156 13.933594 45.382812 13.757812 45.695312 13.59375 C 46.03125 13.40625 46.441406 13.523438 46.761719 13.355469 C 46.964844 13.246094 46.988281 13.074219 47.121094 12.910156 C 47.304688 12.6875 47.578125 12.503906 47.816406 12.339844 C 48.050781 12.167969 48.300781 12.011719 48.566406 11.855469 C 48.699219 11.777344 48.835938 11.703125 48.980469 11.628906 C 49.058594 11.59375 49.132812 11.554688 49.214844 11.519531 C 49.296875 11.488281 49.378906 11.445312 49.550781 11.414062 C 50.21875 11.328125 50.898438 11.488281 51.511719 11.851562 C 51.78125 12.011719 52.039062 12.21875 52.265625 12.464844 C 52.273438 12.410156 52.28125 12.355469 52.285156 12.296875 C 52.339844 11.664062 52.132812 11.164062 51.6875 10.847656 C 51.464844 10.6875 51.195312 10.570312 50.914062 10.484375 C 50.636719 10.402344 50.300781 10.335938 49.988281 10.273438 C 48.730469 10.019531 47.558594 9.890625 46.558594 10.089844 C 45.558594 10.28125 44.753906 10.789062 44.179688 11.433594 C 43.578125 12.089844 43.078125 12.800781 42.503906 13.390625 C 41.925781 13.980469 41.300781 14.429688 40.71875 14.6875 C 40.648438 14.726562 40.578125 14.757812 40.511719 14.792969 C 40.449219 14.820312 40.386719 14.851562 40.324219 14.878906 C 40.203125 14.929688 40.089844 14.980469 39.980469 15.03125 C 39.757812 15.128906 39.558594 15.21875 39.382812 15.296875 C 39.027344 15.453125 38.769531 15.578125 38.578125 15.648438 C 38.390625 15.722656 38.300781 15.761719 38.300781 15.761719 C 38.109375 15.835938 37.945312 15.882812 37.796875 15.917969 C 37.820312 15.953125 37.847656 15.984375 37.875 16.019531 C 38.089844 16.324219 38.269531 16.65625 38.429688 16.996094 C 38.582031 17.339844 38.707031 17.6875 38.828125 18.039062 C 39.230469 19.378906 39.335938 20.773438 39.226562 22.117188 C 39.316406 22.027344 39.414062 21.921875 39.550781 21.820312 C 39.71875 21.6875 39.90625 21.523438 40.125 21.367188 C 40.179688 21.335938 40.242188 21.296875 40.300781 21.261719 C 40.347656 20.808594 40.335938 20.398438 40.285156 20.050781 C 40.214844 19.539062 40.109375 19.136719 40.011719 18.832031 C 39.960938 18.683594 39.929688 18.546875 39.894531 18.4375 C 39.855469 18.332031 39.832031 18.238281 39.820312 18.164062 C 39.792969 18.015625 39.808594 17.921875 39.859375 17.886719 C 39.914062 17.847656 39.996094 17.867188 40.128906 17.964844 C 40.191406 18.015625 40.265625 18.085938 40.355469 18.183594 C 40.4375 18.277344 40.519531 18.40625 40.617188 18.558594 C 40.8125 18.863281 41 19.304688 41.140625 19.902344 C 41.199219 20.160156 41.238281 20.453125 41.25 20.773438 C 41.386719 20.707031 41.53125 20.644531 41.679688 20.582031 C 41.671875 19.914062 41.644531 19.503906 41.570312 19.117188 C 41.484375 18.652344 41.378906 18.222656 41.265625 17.960938 C 41.171875 17.691406 41.078125 17.507812 41.039062 17.371094 C 41 17.234375 41.011719 17.144531 41.0625 17.101562 C 41.109375 17.058594 41.191406 17.085938 41.324219 17.160156 C 41.457031 17.234375 41.644531 17.394531 41.847656 17.671875 C 42.054688 17.933594 42.261719 18.382812 42.417969 18.929688 C 42.523438 19.308594 42.582031 19.710938 42.605469 20.234375 C 42.679688 20.210938 42.746094 20.183594 42.8125 20.160156 C 43.054688 20.078125 43.308594 19.988281 43.570312 19.898438 C 43.550781 19.3125 43.34375 18.804688 43.140625 18.382812 C 42.890625 17.886719 42.644531 17.503906 42.476562 17.199219 C 42.121094 16.582031 42.050781 16.292969 42.15625 16.21875 C 42.257812 16.140625 42.511719 16.28125 43.011719 16.804688 C 43.253906 17.066406 43.570312 17.425781 43.898438 17.96875 C 44.066406 18.242188 44.226562 18.566406 44.351562 18.960938 C 44.410156 19.148438 44.457031 19.355469 44.484375 19.574219 C 44.714844 19.484375 44.949219 19.390625 45.191406 19.285156 C 45.273438 19.253906 45.367188 19.210938 45.449219 19.175781 C 45.464844 18.6875 45.285156 18.261719 45.09375 17.914062 C 44.882812 17.523438 44.667969 17.226562 44.519531 16.980469 C 44.207031 16.496094 44.140625 16.25 44.238281 16.164062 C 44.339844 16.078125 44.570312 16.15625 45.023438 16.546875 C 45.246094 16.746094 45.535156 17.019531 45.835938 17.464844 C 45.984375 17.679688 46.136719 17.949219 46.25 18.28125 C 46.296875 18.429688 46.335938 18.59375 46.359375 18.761719 C 46.867188 18.519531 47.386719 18.25 47.914062 17.9375 C 48.144531 17.792969 48.375 17.640625 48.613281 17.488281 C 48.835938 17.324219 49.074219 17.15625 49.300781 16.972656 C 49.519531 16.785156 49.757812 16.597656 49.972656 16.394531 C 50.183594 16.191406 50.390625 15.96875 50.585938 15.730469 C 50.988281 15.25 51.359375 14.71875 51.667969 14.140625 C 51.671875 14.132812 51.671875 14.128906 51.675781 14.125 C 51.550781 14.15625 51.429688 14.167969 51.320312 14.1875 C 51.253906 14.195312 51.195312 14.210938 51.144531 14.230469 Z M 9.671875 36.128906 C 9.632812 36.152344 9.589844 36.175781 9.550781 36.199219 C 9.5 36.242188 9.453125 36.285156 9.398438 36.328125 C 9.300781 36.414062 9.195312 36.5 9.085938 36.59375 C 8.988281 36.691406 8.886719 36.792969 8.785156 36.902344 C 8.734375 36.957031 8.6875 37.015625 8.644531 37.070312 C 8.703125 37.078125 8.765625 37.09375 8.816406 37.105469 C 9.15625 37.199219 9.394531 37.328125 9.554688 37.457031 C 9.71875 37.582031 9.800781 37.703125 9.839844 37.796875 C 9.878906 37.890625 9.871094 37.960938 9.828125 38.007812 C 9.789062 38.0625 9.726562 38.09375 9.632812 38.101562 C 9.539062 38.101562 9.421875 38.085938 9.261719 38.058594 C 8.992188 38.007812 8.597656 37.902344 8.023438 37.960938 C 7.929688 38.132812 7.84375 38.316406 7.769531 38.511719 C 7.722656 38.671875 7.675781 38.835938 7.628906 39.007812 C 7.625 39.03125 7.621094 39.0625 7.617188 39.089844 C 7.855469 39.03125 8.085938 38.996094 8.292969 38.980469 C 8.777344 38.941406 9.175781 39.015625 9.457031 39.121094 C 9.742188 39.226562 9.910156 39.371094 9.996094 39.484375 C 10.070312 39.601562 10.074219 39.679688 10.039062 39.730469 C 9.949219 39.847656 9.757812 39.78125 9.308594 39.765625 C 9.082031 39.765625 8.789062 39.765625 8.398438 39.839844 C 8.152344 39.886719 7.867188 39.960938 7.5625 40.074219 C 7.570312 40.269531 7.589844 40.464844 7.625 40.675781 C 7.671875 40.964844 7.734375 41.257812 7.808594 41.550781 C 8.222656 41.304688 8.628906 41.179688 8.96875 41.125 C 9.460938 41.042969 9.835938 41.050781 10.113281 41.082031 C 10.671875 41.144531 10.871094 41.273438 10.875 41.402344 C 10.875 41.535156 10.664062 41.640625 10.144531 41.746094 C 9.886719 41.800781 9.554688 41.859375 9.160156 41.96875 C 8.824219 42.0625 8.453125 42.214844 8.082031 42.488281 C 8.15625 42.703125 8.242188 42.917969 8.335938 43.128906 C 8.46875 43.433594 8.628906 43.726562 8.8125 44.007812 C 8.828125 43.988281 8.84375 43.964844 8.859375 43.945312 C 9.078125 43.644531 9.351562 43.410156 9.589844 43.300781 C 10.070312 43.082031 10.445312 43.050781 10.722656 43.042969 C 11.28125 43.035156 11.484375 43.152344 11.5 43.277344 C 11.511719 43.410156 11.3125 43.554688 10.84375 43.722656 C 10.605469 43.808594 10.296875 43.933594 9.996094 44.117188 C 9.742188 44.277344 9.542969 44.425781 9.484375 44.839844 C 9.621094 44.960938 9.757812 45.070312 9.910156 45.15625 C 10.265625 45.363281 10.660156 45.433594 11.078125 45.40625 C 11.484375 45.375 11.894531 45.246094 12.269531 45.054688 C 13.023438 44.671875 13.660156 44.085938 14.167969 43.46875 C 14.421875 43.148438 14.636719 42.851562 14.8125 42.492188 C 14.902344 42.320312 14.992188 42.152344 15.085938 41.984375 C 15.171875 41.816406 15.242188 41.640625 15.320312 41.476562 C 15.398438 41.304688 15.472656 41.140625 15.550781 40.976562 C 15.617188 40.8125 15.679688 40.648438 15.742188 40.488281 C 15.867188 40.167969 15.992188 39.863281 16.089844 39.558594 C 16.511719 38.367188 16.710938 37.363281 16.84375 36.675781 C 16.90625 36.335938 16.921875 36.066406 16.949219 35.890625 C 16.972656 35.707031 16.980469 35.613281 16.980469 35.613281 C 17.003906 35.40625 17.039062 35.238281 17.089844 35.101562 C 16.191406 34.957031 15.351562 34.789062 14.578125 34.648438 C 14.214844 34.585938 13.859375 34.523438 13.519531 34.464844 C 13.351562 34.4375 13.183594 34.410156 13.019531 34.382812 C 12.933594 34.371094 12.851562 34.359375 12.777344 34.347656 C 12.769531 34.34375 12.761719 34.34375 12.761719 34.34375 C 12.722656 34.4375 12.675781 34.535156 12.605469 34.621094 C 12.566406 34.667969 12.53125 34.71875 12.492188 34.769531 C 12.445312 34.808594 12.398438 34.851562 12.351562 34.894531 C 12.351562 34.894531 12.246094 34.988281 12.046875 35.109375 C 11.847656 35.234375 11.554688 35.382812 11.199219 35.519531 C 11.0625 35.574219 10.917969 35.628906 10.761719 35.683594 C 10.859375 35.792969 10.917969 35.890625 10.953125 35.980469 C 11.058594 36.246094 10.980469 36.386719 10.875 36.445312 C 10.753906 36.511719 10.617188 36.488281 10.441406 36.40625 C 10.257812 36.328125 10.054688 36.183594 9.671875 36.132812 L 9.671875 36.128906 "/></g><path style=" stroke:none;fill-rule:nonzero;fill:#2e5742;fill-opacity:1;" d="M 30.710938 19.234375 C 30.773438 19.488281 30.828125 19.78125 30.769531 20.125 C 30.710938 20.472656 30.507812 20.765625 30.332031 20.941406 C 30.152344 21.132812 29.984375 21.269531 29.824219 21.402344 C 29.746094 21.46875 29.667969 21.53125 29.59375 21.59375 L 29.480469 21.6875 L 29.40625 21.75 L 29.347656 21.792969 C 29.207031 21.902344 29.011719 22.042969 28.8125 22.144531 C 28.625 22.246094 28.402344 22.320312 28.171875 22.351562 C 27.945312 22.375 27.710938 22.347656 27.523438 22.273438 C 27.148438 22.136719 26.925781 21.933594 26.726562 21.769531 C 26.535156 21.605469 26.382812 21.453125 26.261719 21.328125 C 26.019531 21.078125 25.898438 20.917969 25.9375 20.855469 C 25.980469 20.796875 26.179688 20.84375 26.5 20.992188 C 26.660156 21.070312 26.847656 21.171875 27.0625 21.285156 C 27.269531 21.394531 27.511719 21.519531 27.734375 21.558594 C 27.949219 21.597656 28.132812 21.542969 28.378906 21.382812 C 28.496094 21.304688 28.605469 21.214844 28.757812 21.074219 C 28.894531 20.945312 29.035156 20.8125 29.179688 20.675781 C 29.324219 20.539062 29.46875 20.398438 29.578125 20.269531 C 29.691406 20.136719 29.738281 20.046875 29.75 19.949219 C 29.769531 19.851562 29.742188 19.683594 29.691406 19.496094 C 29.671875 19.402344 29.632812 19.308594 29.605469 19.210938 L 29.546875 19.046875 L 29.515625 18.964844 L 29.515625 18.960938 L 29.507812 18.945312 L 29.488281 18.902344 C 29.132812 18.03125 28.84375 17.191406 28.367188 16.816406 C 28.136719 16.613281 27.839844 16.5 27.53125 16.421875 C 27.449219 16.402344 27.371094 16.386719 27.289062 16.367188 C 27.203125 16.351562 27.117188 16.339844 27.035156 16.324219 C 26.875 16.292969 26.71875 16.265625 26.570312 16.238281 C 25.984375 16.132812 25.558594 16.148438 25.261719 16.234375 C 24.976562 16.3125 24.792969 16.429688 24.742188 16.375 C 24.714844 16.347656 24.726562 16.285156 24.765625 16.199219 C 24.808594 16.113281 24.917969 15.984375 25.070312 15.867188 C 25.390625 15.621094 25.984375 15.472656 26.632812 15.496094 C 26.796875 15.496094 26.960938 15.503906 27.128906 15.511719 C 27.214844 15.519531 27.300781 15.523438 27.386719 15.527344 L 27.417969 15.527344 L 27.433594 15.53125 L 27.476562 15.535156 L 27.539062 15.542969 L 27.675781 15.558594 C 28.074219 15.609375 28.550781 15.734375 28.960938 16.042969 C 29.386719 16.34375 29.679688 16.785156 29.898438 17.207031 C 30.117188 17.636719 30.289062 18.070312 30.46875 18.503906 L 30.507812 18.609375 L 30.539062 18.691406 L 30.597656 18.855469 C 30.636719 18.984375 30.679688 19.105469 30.710938 19.234375 "/><path style=" stroke:none;fill-rule:nonzero;fill:#2e5742;fill-opacity:1;" d="M 27.761719 14.574219 C 28.441406 14.617188 28.859375 14.683594 28.859375 14.757812 C 28.859375 14.832031 28.441406 14.894531 27.765625 14.945312 C 27.09375 15.003906 26.167969 15.054688 25.15625 15.167969 C 24.148438 15.296875 23.257812 15.496094 22.632812 15.679688 C 22.472656 15.710938 22.328125 15.777344 22.199219 15.816406 C 22.074219 15.859375 21.964844 15.898438 21.867188 15.921875 C 21.683594 15.976562 21.574219 15.988281 21.558594 15.957031 C 21.542969 15.921875 21.625 15.847656 21.78125 15.738281 C 21.863281 15.683594 21.960938 15.621094 22.074219 15.550781 C 22.191406 15.480469 22.320312 15.398438 22.484375 15.335938 C 23.125 15.042969 24.050781 14.773438 25.09375 14.644531 C 26.140625 14.527344 27.085938 14.535156 27.761719 14.574219 "/><path style=" stroke:none;fill-rule:nonzero;fill:#2e5742;fill-opacity:1;" d="M 24.839844 21.0625 C 24.847656 21.128906 24.839844 21.214844 24.839844 21.285156 L 24.839844 21.300781 L 24.835938 21.347656 L 24.824219 21.414062 L 24.8125 21.496094 L 24.785156 21.667969 L 24.773438 21.757812 L 24.746094 21.863281 C 24.703125 22 24.660156 22.136719 24.617188 22.269531 C 24.566406 22.382812 24.515625 22.496094 24.464844 22.609375 C 24.25 23.046875 24 23.425781 23.734375 23.75 C 23.476562 24.085938 23.203125 24.367188 22.945312 24.621094 L 22.707031 24.859375 L 22.46875 24.699219 C 21.054688 23.777344 20.222656 23.128906 20.308594 22.992188 C 20.386719 22.871094 21.242188 23.207031 22.542969 23.851562 C 22.910156 23.378906 23.300781 22.828125 23.5625 22.203125 C 23.601562 22.109375 23.636719 22.019531 23.671875 21.929688 C 23.695312 21.84375 23.71875 21.765625 23.742188 21.683594 L 23.761719 21.625 L 23.773438 21.535156 L 23.792969 21.363281 L 23.800781 21.277344 L 23.808594 21.230469 L 23.804688 21.210938 L 23.800781 21.210938 L 23.800781 21.207031 C 23.800781 21.171875 23.804688 21.140625 23.800781 21.101562 C 23.777344 20.703125 23.675781 20.230469 23.5625 19.769531 C 23.4375 19.265625 23.289062 18.761719 23.105469 18.339844 C 23.082031 18.289062 23.0625 18.234375 23.035156 18.191406 C 23.015625 18.152344 22.980469 18.085938 22.972656 18.074219 C 22.957031 18.050781 22.96875 18.035156 22.910156 17.976562 L 22.878906 17.941406 L 22.863281 17.925781 C 22.847656 17.917969 22.828125 17.917969 22.8125 17.90625 L 22.6875 17.875 C 22.597656 17.855469 22.5 17.835938 22.390625 17.824219 C 21.96875 17.773438 21.53125 17.773438 21.121094 17.777344 C 20.910156 17.785156 20.710938 17.789062 20.515625 17.792969 C 20.421875 17.796875 20.324219 17.796875 20.230469 17.800781 C 20.171875 17.800781 20.066406 17.816406 19.988281 17.820312 C 19.8125 17.828125 19.679688 17.859375 19.542969 17.882812 C 19.484375 17.902344 19.429688 17.917969 19.375 17.9375 C 19.324219 17.960938 19.28125 17.992188 19.234375 18.015625 C 19.054688 18.148438 18.894531 18.335938 18.753906 18.484375 C 18.472656 18.78125 18.28125 18.917969 18.222656 18.875 C 18.160156 18.832031 18.242188 18.613281 18.414062 18.246094 C 18.503906 18.074219 18.605469 17.835938 18.839844 17.574219 C 18.90625 17.515625 18.976562 17.445312 19.054688 17.390625 C 19.136719 17.34375 19.222656 17.296875 19.3125 17.25 C 19.488281 17.1875 19.683594 17.113281 19.863281 17.085938 C 19.964844 17.0625 20.039062 17.039062 20.167969 17.019531 C 20.257812 17.007812 20.355469 16.996094 20.453125 16.980469 C 20.644531 16.957031 20.851562 16.929688 21.066406 16.90625 C 21.5 16.859375 21.964844 16.828125 22.484375 16.859375 C 22.617188 16.867188 22.753906 16.882812 22.902344 16.914062 C 22.972656 16.929688 23.050781 16.949219 23.128906 16.96875 C 23.21875 17.003906 23.292969 17.023438 23.390625 17.078125 C 23.4375 17.105469 23.484375 17.132812 23.53125 17.164062 L 23.542969 17.175781 L 23.601562 17.230469 L 23.613281 17.242188 L 23.628906 17.253906 L 23.660156 17.289062 C 23.691406 17.324219 23.765625 17.417969 23.816406 17.5 C 23.882812 17.589844 23.90625 17.640625 23.945312 17.710938 C 23.984375 17.777344 24.015625 17.84375 24.046875 17.910156 C 24.289062 18.429688 24.449219 18.957031 24.589844 19.511719 C 24.714844 20.023438 24.816406 20.511719 24.839844 21.0625 "/><path style=" stroke:none;fill-rule:nonzero;fill:#2e5742;fill-opacity:1;" d="M 19.035156 22.359375 C 19.171875 22.695312 19.304688 23.109375 19.277344 23.59375 C 19.265625 23.710938 19.261719 23.835938 19.234375 23.957031 L 19.1875 24.136719 L 19.121094 24.332031 C 19.070312 24.472656 19.019531 24.554688 18.976562 24.65625 C 18.925781 24.757812 18.855469 24.867188 18.792969 24.972656 C 18.285156 25.835938 17.457031 26.496094 16.933594 27.253906 L 16.609375 27.734375 L 16.144531 27.339844 C 15.917969 27.144531 15.679688 26.949219 15.445312 26.746094 C 14.742188 26.195312 14.003906 25.710938 13.3125 25.238281 L 13.027344 25.046875 L 13.085938 24.738281 C 13.152344 24.417969 12.984375 23.945312 12.804688 23.5 C 12.710938 23.273438 12.617188 23.039062 12.542969 22.789062 C 12.476562 22.539062 12.410156 22.265625 12.460938 21.949219 L 12.46875 21.921875 L 12.46875 21.914062 C 12.574219 21.574219 12.773438 21.390625 12.9375 21.238281 C 13.105469 21.089844 13.273438 20.988281 13.425781 20.890625 C 13.734375 20.707031 14.003906 20.570312 14.214844 20.464844 C 14.433594 20.355469 14.601562 20.273438 14.71875 20.226562 C 14.835938 20.171875 14.910156 20.148438 14.941406 20.179688 C 14.964844 20.207031 14.945312 20.28125 14.867188 20.398438 C 14.785156 20.511719 14.652344 20.660156 14.464844 20.824219 C 14.28125 20.992188 14.046875 21.183594 13.792969 21.398438 C 13.671875 21.507812 13.542969 21.625 13.4375 21.75 C 13.335938 21.859375 13.261719 21.984375 13.242188 22.0625 C 13.238281 22.300781 13.421875 22.699219 13.636719 23.132812 C 13.75 23.355469 13.863281 23.597656 13.960938 23.886719 C 14.023438 24.078125 14.074219 24.300781 14.089844 24.542969 C 14.734375 24.949219 15.417969 25.386719 16.101562 25.917969 C 16.214844 26.011719 16.324219 26.109375 16.429688 26.203125 C 16.671875 25.925781 16.914062 25.6875 17.140625 25.457031 C 17.480469 25.117188 17.78125 24.796875 18.007812 24.472656 C 18.0625 24.386719 18.121094 24.3125 18.171875 24.222656 C 18.222656 24.128906 18.289062 24.027344 18.308594 23.96875 C 18.378906 23.839844 18.421875 23.667969 18.449219 23.519531 C 18.5 23.207031 18.445312 22.890625 18.367188 22.597656 C 18.199219 22.003906 17.964844 21.5 17.851562 21.144531 C 17.726562 20.789062 17.695312 20.570312 17.753906 20.542969 C 17.816406 20.511719 17.960938 20.664062 18.191406 20.960938 C 18.410156 21.269531 18.738281 21.695312 19.035156 22.359375 "/><path style=" stroke:none;fill-rule:nonzero;fill:#2e5742;fill-opacity:1;" d="M 19.007812 16.945312 C 19.070312 17.085938 18.164062 17.617188 17.035156 18.195312 C 15.9375 18.773438 15.023438 19.324219 14.941406 19.1875 C 14.867188 19.074219 15.613281 18.351562 16.789062 17.726562 C 17.945312 17.132812 18.949219 16.816406 19.007812 16.945312 "/><path style=" stroke:none;fill-rule:nonzero;fill:#2e5742;fill-opacity:1;" d="M 13.0625 20.074219 C 13.105469 20.136719 12.902344 20.363281 12.574219 20.699219 C 12.25 21.046875 11.816406 21.527344 11.359375 22.082031 C 10.457031 23.207031 9.753906 24.171875 9.621094 24.089844 C 9.503906 24.019531 10.011719 22.921875 10.949219 21.75 C 11.421875 21.171875 11.929688 20.703125 12.332031 20.417969 C 12.738281 20.136719 13.023438 20.019531 13.0625 20.074219 "/></g></svg>